<?xml version="1.0" encoding="UTF-8"?>
<svg width="960px" height="590px" viewBox="0 0 960 590" version="1.1" xmlns="http://www.w3.org/2000/svg" xmlns:xlink="http://www.w3.org/1999/xlink">
    <!-- Generator: Sketch 47 (45396) - http://www.bohemiancoding.com/sketch -->
    <title>Foreground</title>
    <desc>Created with Sketch.</desc>
    <defs>
        <path d="M0.2745,103.368298 L2.957,105.539 C6.551,108.447 11.072,109.858 15.617,109.49 L83.068,104.033 C93.039,103.225 100.449,94.248 99.618,83.98 L93.507,8.463 C93.2726887,5.55821211 92.3835425,2.78068339 90.9464769,0.3335 L0.2745,0.3335 L0.2745,103.368298 L0.2745,103.368298 Z" id="path-1"></path>
        <path d="M1.26515547,30.8255 L0.877,26.028 C0.046,15.761 7.456,6.784 17.427,5.975 L84.879,0.519 C85.353,0.48 85.827,0.461 86.299,0.461 C90.357,0.461 94.319,1.865 97.538,4.47 L114.608,18.285 C117.627621,20.7278652 119.796619,24.0680032 120.8497,27.8014901 L120.8497,30.8255 L1.26515547,30.8255 L1.26515547,30.8255 Z" id="path-3"></path>
        <path d="M9.54707137,109.6738 C8.11098851,107.226897 7.22237228,104.450046 6.987,101.546 L0.877,26.028 C0.046,15.761 7.456,6.784 17.427,5.975 L84.879,0.519 C85.353,0.48 85.827,0.461 86.299,0.461 C90.357,0.461 94.319,1.865 97.538,4.47 L100.2211,6.64147197 L100.2211,109.6738 L9.54707137,109.6738 L9.54707137,109.6738 Z" id="path-5"></path>
        <path d="M25.8144842,124.5716 C32.7246791,121.500015 37.2790874,114.148526 36.618,105.98 L30.507,30.463 C30.089,25.281 27.587,20.504 23.608,17.285 L6.538,3.47 C4.84843788,2.10270913 2.95418644,1.06628215 0.9488,0.390072286 L0.9488,124.5716 L25.8144842,124.5716 L25.8144842,124.5716 Z" id="path-7"></path>
        <path d="M0.6451,3.20740637 C1.6984878,6.94098487 3.86634714,10.2813503 6.886,12.725 L23.957,26.539 C27.551,29.447 32.072,30.858 36.617,30.49 L104.068,25.033 C114.039,24.225 121.449,15.248 120.618,4.98 L120.229881,0.1838 L0.6451,0.1838 L0.6451,3.20740637 L0.6451,3.20740637 Z" id="path-9"></path>
        <path d="M11.6807137,0.4368 C4.77040786,3.50880318 0.215906319,10.8601916 0.877,19.028 L6.987,94.546 C7.407,99.728 9.907,104.505 13.886,107.725 L30.957,121.539 C32.6464578,122.905985 34.5407573,123.942173 36.5461,124.618274 L36.5461,0.4368 L11.6807137,0.4368 L11.6807137,0.4368 Z" id="path-11"></path>
        <path d="M0.1012,6.18632485 C1.68373465,5.41445612 3.43459485,4.9244251 5.252,4.762 L54.388,0.363 C54.843,0.322 55.294,0.302 55.741,0.302 C62.426,0.302 68.04,4.764 68.577,10.751 L72.781,57.726 C73.07,60.95 71.815,64.164 69.32,66.594 L67.0346237,68.8196 L0.1012,68.8196 L0.1012,6.18632485 L0.1012,6.18632485 Z" id="path-13"></path>
        <path d="M20.6669475,0.2241 C18.3544578,0.851867961 16.2492973,2.02600504 14.595,3.637 L3.89,14.06 C1.395,16.491 0.141,19.705 0.43,22.929 L4.634,69.904 C5.206,76.291 11.558,80.941 18.822,80.291 L23.7942,79.8458628 L23.7942,0.2241 L20.6669475,0.2241 L20.6669475,0.2241 Z" id="path-15"></path>
        <path d="M0.669599217,16.5763459 C2.84393645,20.9721998 8.04450362,23.8079841 13.822,23.291 L62.959,18.892 C66.27,18.597 69.361,17.213 71.615,15.019 L82.32,4.594 C83.4775644,3.46659257 84.3682151,2.17042677 84.9615924,0.7828 L0.6696,0.7828 L0.6696,16.5763471 L0.669599217,16.5763459 Z" id="path-17"></path>
        <path d="M6.17509589,0.8351 L3.89,3.06 C1.395,5.491 0.141,8.705 0.43,11.929 L4.634,58.904 C5.206,65.291 11.558,69.941 18.822,69.291 L67.959,64.892 C69.7763571,64.730079 71.5274338,64.2400703 73.1102,63.4681106 L73.1102,0.8351 L6.17509589,0.8351 L6.17509589,0.8351 Z" id="path-19"></path>
        <path d="M0.4166,0.808074662 L5.388,0.363 C5.843,0.322 6.294,0.302 6.741,0.302 C13.426,0.302 19.04,4.764 19.577,10.751 L23.781,57.726 C24.07,60.95 22.815,64.164 20.32,66.594 L9.615,77.019 C7.95940389,78.6305252 5.85223638,79.8050459 3.53800183,80.432 L0.4166,80.432 L0.4166,0.808074662 L0.4166,0.808074662 Z" id="path-21"></path>
        <path d="M0.248830573,22.8721 C0.841977033,21.4843195 1.73242055,20.187886 2.89,19.06 L13.595,8.637 C15.849,6.442 18.94,5.058 22.252,4.762 L71.388,0.363 C71.843,0.322 72.294,0.302 72.741,0.302 C77.9666978,0.302 82.5379474,3.02856164 84.5412,7.07876597 L84.5412,22.8721 L0.248830573,22.8721 L0.248830573,22.8721 Z" id="path-23"></path>
        <path d="M28.4252,19.7463 C18.0732,26.6143 -3.5978,9.6823 1.2402,3.4913 C6.0782,-2.7007 34,1 38,7 C42,13 38.7772,12.8773 28.4252,19.7463 Z" id="path-25"></path>
        <path d="M75.736,210.7725 C69.786,208.6955 20.183,158.4795 6.439,122.0845 C-8.813,81.6955 7.634,29.9225 46.538,9.8565 C82.236,-8.5565 126.021,0.0495 148.603,26.8605 C164.655,45.9185 206.304,65.9965 183.728,130.9585 C165.743,182.7095 75.736,210.7725 75.736,210.7725" id="path-27"></path>
        <path d="M83.4039,5.6191 C58.8729,-9.7039 -10.0491,11.9891 1.8339,70.8481 C7.4899,98.8671 56.4519,121.5661 85.7279,86.9331 C116.6289,50.3791 97.5079,14.4281 83.4039,5.6191" id="path-29"></path>
        <path d="M0.0525,25.5833 C-1.4695,37.8773 33.2795,55.8263 56.5485,46.3593 C78.3155,37.5033 77.8416359,2.49811348 67.9595,1.0323 C61,0 62.2465,1.6103 52.7555,5.4063 C42.3695,9.5603 2.0325,9.5733 0.0525,25.5833 Z" id="path-31"></path>
        <path d="M24.9205,118.5898 C1.3995,88.2748 21.0855,60.3048 14.2205,55.9128 C9.6355,52.9798 3.2305,62.3918 0.7725,60.3618 C-2.0405,58.0398 12.0035,33.5278 32.2175,20.1168 C63.2745,-0.4882 81.3575,1.8208 105.3785,0.3628 C132.5635,-1.2862 147.1675,10.7528 155.4375,20.5998 C159.0125,24.8558 112.0345,15.1958 69.9295,46.5738 C37.1665,70.9888 24.9205,118.5898 24.9205,118.5898" id="path-33"></path>
        <path d="M68.5744,36.5492 C100.2974,8.6362 149,21 149,21 C144.127,12.538 143.2104,4.0162 137.8244,1.4902 C131.7684,-1.3488 81.4204,1.0382 61.4014,12.4812 C19.9234,36.1902 11.8624,66.1992 1.6294,97.5892 C-1.22161349,106.335029 4.44065063,114.96694 12,128 C13.1453951,129.974774 18.0818148,127.792961 19,130 C19,130 6.9224,90.7952 68.5744,36.5492 Z" id="path-35"></path>
        <path d="M100.3629,1.1758 C59.6239,18.5618 0.6229,-5.0112 0.2869,9.2618 C-0.7111,51.7058 115.8689,68.4118 162.5799,53.6728 C182.7939,47.2938 116.2329,-5.5972 100.3629,1.1758" id="path-37"></path>
        <path d="M229.8033,12.9326 C222.1133,-4.1264 161.8373,-5.7654 97.9793,25.3796 C49.0003,49.2676 -14.9687,118.2196 4.1793,139.1356 C21.5643,158.1246 83.7433,153.9616 146.4483,124.5586 C200.2523,99.3286 238.2023,31.5656 229.8033,12.9326" id="path-39"></path>
        <path d="M216,8 C207,-6 149.2615,0.0234 92.1865,27.8594 C48.4105,49.2104 -13.7635,116.8374 3.3515,135.5314 C18.8895,152.5034 79.4625,142.7824 135.5055,116.5024 C183.5955,93.9524 225,22 216,8 Z" id="path-41"></path>
        <path d="M3.124,8.273 C1.114,2.76 6.581,0.452 13.944,0.453 C25.54,0.453 41.837,6.178 41.022,14.124 C38.938,34.436 10.665,39.916 6.124,38.169 C-6.882,33.165 8.423,22.804 3.124,8.273 Z" id="path-43"></path>
        <filter x="-7.2%" y="-14.8%" width="114.5%" height="129.6%" filterUnits="objectBoundingBox" id="filter-45">
            <feGaussianBlur stdDeviation="3.81293199 3.23443188" in="SourceGraphic"></feGaussianBlur>
        </filter>
        <path d="M0.2999,8.28250507 C3.17544947,6.63462756 6.42014787,5.64737472 9.798,5.441 L98.051,0.058 C98.502,0.031 98.949,0.017 99.395,0.017 C110.812,0.018 120.399,8.912 121.104,20.461 L126.054,101.633 C126.389,107.102 124.646,112.497 121.177,116.739 L120.613796,117.4276 L0.2999,117.4276 L0.2999,8.28250507 L0.2999,8.28250507 Z" id="path-46"></path>
        <path d="M33.9681808,0.02 C29.4066754,1.13210283 25.2891561,3.6999301 22.274,7.388 L5.794,27.536 C2.326,31.778 0.583,37.173 0.918,42.643 L5.868,123.814 C6.601,135.814 16.921,144.948 28.921,144.216 L35.093,143.839538 L35.093,0.02 L33.9681808,0.02 L33.9681808,0.02 Z" id="path-48"></path>
        <path d="M6.35682946,0.8479 L5.794,1.536 C2.326,5.778 0.583,11.173 0.918,16.643 L5.868,97.814 C6.601,109.814 16.921,118.948 28.921,118.216 L117.174,112.833 C120.551741,112.627156 123.796604,111.639916 126.6725,109.991755 L126.6725,0.8479 L6.35682946,0.8479 L6.35682946,0.8479 Z" id="path-50"></path>
        <path d="M0.0963685426,40.1337 C0.927573324,37.7558035 2.17215215,35.5198173 3.794,33.536 L20.274,13.388 C24.114,8.691 29.742,5.811 35.798,5.441 L124.051,0.058 C124.502,0.031 124.949,0.017 125.395,0.017 C134.632741,0.0178091216 142.672422,5.84066705 145.7785,14.1812188 L145.7785,40.1337 L0.0963685426,40.1337 L0.0963685426,40.1337 Z" id="path-52"></path>
        <path d="M0.8785,0.434492216 L7.051,0.058 C7.502,0.031 7.949,0.017 8.395,0.017 C19.812,0.018 29.399,8.912 30.104,20.461 L35.054,101.633 C35.389,107.102 33.646,112.497 30.177,116.739 L13.698,136.887 C10.6826155,140.574389 6.56589127,143.141949 2.00583962,144.2539 L0.8785,144.2539 L0.8785,0.434492216 L0.8785,0.434492216 Z" id="path-54"></path>
        <path d="M23.4385858,0.631840241 C23.4735498,0.683688891 23.5082978,0.735699645 23.5428285,0.787871287 L23.5428285,80.9847098 L1.3629207,80.9847098 L0.545486603,67.5786943 L0.545486603,20.5875272 L16.8656879,0.631840241 L23.4385858,0.631840241 Z" id="path-56"></path>
        <path d="M0.5094,58.0753832 C2.24727287,55.4623438 4.5556698,53.0871293 7.273,51.156 L71.8,5.279 C76.353,2.042 81.451,0.44 86.096,0.44 C91.182,0.439 95.726,2.36 98.426,6.157 L136.422,59.6 C139.029,63.268 139.508,68.197 137.745,73.2 L130.178,94.663 C128.585,99.181 125.286,103.408 120.938,106.5 L90.250717,128.3169 L13.3040937,128.3169 L0.5094,110.320616 L0.5094,58.0753832 L0.5094,58.0753832 Z" id="path-58"></path>
        <path d="M13.0808652,0.9638 C11.2905169,3.12606256 9.90456249,5.51517217 9.032,7.992 L1.466,29.454 C-0.298,34.458 0.182,39.387 2.789,43.055 L40.785,96.498 C45.1693528,102.665459 54.4184862,103.880983 62.9488,99.9617945 L62.9488,0.9638 L13.0808652,0.9638 L13.0808652,0.9638 Z" id="path-60"></path>
        <path d="M0.139299006,91.9857716 C5.50262833,92.8386809 11.8597467,91.3213941 17.411,87.375 L81.938,41.5 C86.286,38.408 89.585,34.181 91.178,29.663 L98.745,8.2 C99.6963119,5.50038934 99.9948288,2.822325 99.6584614,0.3523 L0.1393,0.3523 L0.1393,91.9857707 L0.139299006,91.9857716 Z" id="path-62"></path>
        <path d="M84.4199,6.95818281 L83.3222696,10.0718202 L78.178,24.663 C76.6034292,29.128732 73.3621028,33.3101581 69.0884817,36.3922331 L36.8764285,59.2937 L0.6439,59.2937 L0.6439,57.8219621 L81.3139925,0.4697 L84.4199,0.4697 L84.4199,6.95818281 L84.4199,6.95818281 Z" id="path-64"></path>
        <path d="M48.9593671,0.3388 L18.273,22.156 C13.925,25.246 10.624,29.473 9.032,33.992 L1.466,55.454 C-0.298,60.458 0.182,65.387 2.789,69.055 L40.785,122.498 C45.951,129.765 57.871,130.157 67.411,123.375 L131.938,77.5 C134.655499,75.567501 136.963232,73.1916431 138.7008,70.5784807 L138.7008,18.333259 L125.907404,0.3388 L48.9593671,0.3388 L48.9593671,0.3388 Z" id="path-66"></path>
        <path d="M50.1283127,101.6919 C51.918742,99.5290832 53.3047174,97.1397677 54.178,94.663 L61.745,73.2 C63.508,68.197 63.029,63.268 60.422,59.6 L22.426,6.157 C19.726,2.36 15.182,0.439 10.096,0.44 C6.92313869,0.44 3.5389144,1.18746911 0.2614,2.69292478 L0.2614,101.6919 L50.1283127,101.6919 L50.1283127,101.6919 Z" id="path-68"></path>
        <path d="M0.552086137,92.3018 C0.215738997,89.831883 0.514251537,87.1538579 1.466,84.454 L9.032,62.992 C10.624,58.473 13.925,54.246 18.273,51.156 L82.8,5.279 C87.353,2.042 92.451,0.44 97.096,0.44 C98.1130789,0.439800024 99.108483,0.516461748 100.0718,0.669617305 L100.0718,92.3018 L0.552086137,92.3018 L0.552086137,92.3018 Z" id="path-70"></path>
        <path d="M0.5094,58.0753832 C2.24727287,55.4623438 4.5556698,53.0871293 7.273,51.156 L71.8,5.279 C76.353,2.042 81.451,0.44 86.096,0.44 C91.182,0.439 95.726,2.36 98.426,6.157 L136.422,59.6 C139.029,63.268 139.508,68.197 137.745,73.2 L130.178,94.663 C128.585,99.181 125.286,103.408 120.938,106.5 L90.250717,128.3169 L13.3040937,128.3169 L0.5094,110.320616 L0.5094,58.0753832 L0.5094,58.0753832 Z" id="path-72"></path>
        <path d="M13.0808652,0.9638 C11.2905169,3.12606256 9.90456249,5.51517217 9.032,7.992 L1.466,29.454 C-0.298,34.458 0.182,39.387 2.789,43.055 L40.785,96.498 C45.1693528,102.665459 54.4184862,103.880983 62.9488,99.9617945 L62.9488,0.9638 L13.0808652,0.9638 L13.0808652,0.9638 Z" id="path-74"></path>
        <path d="M0.139299006,91.9857716 C5.50262833,92.8386809 11.8597467,91.3213941 17.411,87.375 L81.938,41.5 C86.286,38.408 89.585,34.181 91.178,29.663 L98.745,8.2 C99.6963119,5.50038934 99.9948288,2.822325 99.6584614,0.3523 L0.1393,0.3523 L0.1393,91.9857707 L0.139299006,91.9857716 Z" id="path-76"></path>
        <path d="M84.4199,6.95818281 L83.3222696,10.0718202 L78.178,24.663 C76.6034292,29.128732 73.3621028,33.3101581 69.0884817,36.3922331 L36.8764285,59.2937 L0.6439,59.2937 L0.6439,57.8219621 L81.3139925,0.4697 L84.4199,0.4697 L84.4199,6.95818281 L84.4199,6.95818281 Z" id="path-78"></path>
        <path d="M48.9593671,0.3388 L18.273,22.156 C13.925,25.246 10.624,29.473 9.032,33.992 L1.466,55.454 C-0.298,60.458 0.182,65.387 2.789,69.055 L40.785,122.498 C45.951,129.765 57.871,130.157 67.411,123.375 L131.938,77.5 C134.655499,75.567501 136.963232,73.1916431 138.7008,70.5784807 L138.7008,18.333259 L125.907404,0.3388 L48.9593671,0.3388 L48.9593671,0.3388 Z" id="path-80"></path>
        <path d="M50.1283127,101.6919 C51.918742,99.5290832 53.3047174,97.1397677 54.178,94.663 L61.745,73.2 C63.508,68.197 63.029,63.268 60.422,59.6 L22.426,6.157 C19.726,2.36 15.182,0.439 10.096,0.44 C6.92313869,0.44 3.5389144,1.18746911 0.2614,2.69292478 L0.2614,101.6919 L50.1283127,101.6919 L50.1283127,101.6919 Z" id="path-82"></path>
        <path d="M0.552086137,92.3018 C0.215738997,89.831883 0.514251537,87.1538579 1.466,84.454 L9.032,62.992 C10.624,58.473 13.925,54.246 18.273,51.156 L82.8,5.279 C87.353,2.042 92.451,0.44 97.096,0.44 C98.1130789,0.439800024 99.108483,0.516461748 100.0718,0.669617305 L100.0718,92.3018 L0.552086137,92.3018 L0.552086137,92.3018 Z" id="path-84"></path>
        <path d="M0.9814,17.0888571 L15.625,5.935 C20.409,2.291 26.223,0.357 32.151,0.357 C33.717,0.357 35.291,0.492 36.856,0.767 L145.98,19.882 C160.818,22.481 170.739,36.615 168.14,51.453 L150.559,151.821 C149.894181,155.618442 148.438311,159.196445 146.322396,162.3408 L0.9814,162.3408 L0.9814,17.0888571 L0.9814,17.0888571 Z" id="path-86"></path>
        <path d="M1.91397766,0.4628 L0.759,7.056 C-1.839,21.894 8.081,36.028 22.92,38.628 L132.043,57.742 C139.531,59.054 147.227,57.181 153.275,52.574 L179.22,32.812 C182.961685,29.9615515 185.873215,26.2166576 187.7167,21.9663022 L187.7167,0.4628 L1.91397766,0.4628 L1.91397766,0.4628 Z" id="path-88"></path>
        <path d="M11.7133785,168.9219 C3.48279965,163.003126 -1.10660756,152.711075 0.759,142.056 L18.341,41.689 C19.525,34.925 23.217,28.857 28.68,24.697 L54.625,4.935 C57.4843438,2.75702156 60.7116367,1.18990992 64.1113,0.281492148 L64.1113,168.9219 L11.7133785,168.9219 L11.7133785,168.9219 Z" id="path-90"></path>
        <polygon id="path-92" points="0.8261 0.144144697 125.4571 0.144144697 125.4571 15.3989 0.8261 15.3989"></polygon>
        <path d="M22.576563,0.1688 C20.4610861,3.31313747 19.0057535,6.89137115 18.341,10.689 L0.759,111.056 C-1.839,125.894 8.081,140.028 22.92,142.628 L132.043,161.742 C139.531,163.054 147.227,161.181 153.275,156.574 L167.9177,145.420828 L167.9177,0.1688 L22.576563,0.1688 L22.576563,0.1688 Z" id="path-94"></path>
        <path d="M0.1836,36.5416534 C2.02688403,32.2912285 4.93797133,28.5465038 8.68,25.697 L34.625,5.935 C39.409,2.291 45.223,0.357 51.151,0.357 C52.717,0.357 54.291,0.492 55.856,0.767 L164.98,19.882 C179.818,22.481 189.739,36.615 187.14,51.453 L185.985152,58.0459 L0.1836,58.0459 L0.1836,36.5416534 L0.1836,36.5416534 Z" id="path-96"></path>
        <path d="M0.7887,169.227107 C4.18837968,168.318851 7.41584318,166.751932 10.275,164.574 L36.22,144.812 C41.682,140.651 45.375,134.584 46.559,127.821 L64.14,27.453 C66.0063961,16.7975227 61.4162587,6.50509645 53.1852308,0.5868 L0.7887,0.5868 L0.7887,169.227107 L0.7887,169.227107 Z" id="path-98"></path>
        <polygon id="path-100" points="46.2104454 26.4640956 34.3595813 94.1214345 0.109330611 94.1214345 0.109330611 72.3352554 8.918 22.046 37.4886468 0.283865732 46.2104454 0.283865732 46.2104454 26.4640956"></polygon>
        <path d="M0.2145,44.9427695 L38.71,8.423 C43.691,3.696 50.271,1.023 57.137,0.938 L89.749,0.526 C89.864,0.524 89.979,0.523 90.095,0.523 C97.572,0.524 104.727,3.595 109.88,9.026 L186.128,89.398 C196.495,100.326 196.041,117.59 185.113,127.957 L111.189,198.086 C106.785731,202.263845 101.132877,204.837315 95.1375086,205.4375 L54.3668765,205.4375 C48.9267487,204.330264 43.9040568,201.577418 40.019,197.483 L0.2145,155.525607 L0.2145,44.9427695 Z" id="path-102"></path>
        <path d="M98.7554219,0.0718 C92.7623074,0.672436016 87.1117829,3.24568066 82.71,7.423 L8.787,77.552 C-2.141,87.919 -2.596,105.183 7.771,116.111 L84.019,196.483 C89.252,201.998 96.549,205.079 104.15,204.983 L136.762,204.571 C143.628,204.485 150.208,201.812 155.189,197.086 L193.6847,160.566535 L193.6847,49.9836035 L153.88,8.026 C149.996134,3.9326023 144.974974,1.17986962 139.535841,0.0718 L98.7554219,0.0718 L98.7554219,0.0718 Z" id="path-104"></path>
        <path d="M0.4577,3.26147953 C3.79546165,1.78659508 7.42442085,0.983961146 11.137,0.938 L43.749,0.526 C43.864,0.524 43.979,0.523 44.095,0.523 C51.572,0.524 58.727,3.595 63.88,9.026 L140.128,89.398 C145.557773,95.1216001 148.019132,102.58329 147.561931,109.8818 L0.4577,109.8818 L0.4577,3.26147953 L0.4577,3.26147953 Z" id="path-106"></path>
        <path d="M0.2267,94.405229 C3.91738359,96.1356513 7.9881216,97.0355642 12.15,96.983 L44.762,96.571 C51.628,96.485 58.208,93.812 63.189,89.086 L137.113,18.957 C142.499225,13.8472827 145.340963,7.06205257 145.596666,0.1858 L0.2267,0.1858 L0.2267,94.405229 L0.2267,94.405229 Z" id="path-108"></path>
        <path d="M90.1198377,9.58572029 C88.7108044,12.646765 86.7069781,15.4961864 84.113,17.957 L46.0143837,54.0997664 L0.348752812,54.0997664 L0.348752812,45.7380238 L48.2185281,0.324536381 L90.1198377,0.324536381 L90.1198377,9.58572029 L90.1198377,9.58572029 Z" id="path-110"></path>
        <path d="M17.523601,0.11066447 L67.128,52.398 C70.4644144,55.9149611 72.6800467,60.0881717 73.7864637,64.4765297 L73.7864637,69.0451119 L0.136781792,69.0451119 L0.136781792,0.11066447 L17.523601,0.11066447 L17.523601,0.11066447 Z" id="path-112"></path>
    </defs>
    <g id="Title" stroke="none" stroke-width="1" fill="none" fill-rule="evenodd">
        <g id="Zearn-Board">
            <g id="Foreground" transform="translate(-185.000000, -93.000000)">
                <g id="Ice-cube-tbd" transform="translate(171.000000, 547.625000)">
                    <g id="Group-298" transform="translate(28.000000, 23.000000)">
                        <mask id="mask-2" fill="white">
                            <use xlink:href="#path-1"></use>
                        </mask>
                        <g id="Clip-297"></g>
                        <polygon id="Fill-296" fill="#99DCFF" mask="url(#mask-2)" points="8.5465 110.0625 0.2745 7.8255 92.8495 0.3335 101.1225 102.5715"></polygon>
                    </g>
                    <g id="Group-301">
                        <mask id="mask-4" fill="white">
                            <use xlink:href="#path-3"></use>
                        </mask>
                        <g id="Clip-300"></g>
                        <polygon id="Fill-299" fill="#F3FDFF" mask="url(#mask-4)" points="-0.6273 7.4365 28.2737 30.8255 120.8497 23.3335 91.9487 -0.0535"></polygon>
                    </g>
                    <g>
                        <path d="M24.9757,31.7871 C28.7777,37.0421 32.4107,98.6311 32.4107,98.6311 C32.4107,98.6311 28.1847,49.6761 21.2867,36.2581 C17.7617,29.4021 10.8887,16.2391 10.8887,16.2391 C10.8887,16.2391 20.5017,25.6011 24.9757,31.7871" id="Fill-305" fill="#00264D"></path>
                        <path d="M99.3273,7.6934 L115.3153,21.6964 L28.1623,29.4434 C28.1623,29.4434 99.8303,22.2544 106.2593,18.2564 C109.6023,16.1784 99.3273,7.6934 99.3273,7.6934" id="Fill-303" fill="#C7E7F8"></path>
                        <g id="Group-309">
                            <mask id="mask-6" fill="white">
                                <use xlink:href="#path-5"></use>
                            </mask>
                            <g id="Clip-308"></g>
                            <polygon id="Fill-307" fill="#F3FDFF" mask="url(#mask-6)" points="7.6451 109.6738 -0.6269 7.4368 91.9481 -0.0542 100.2211 102.1838"></polygon>
                        </g>
                        <g id="Group-312" transform="translate(91.000000, 1.000000)">
                            <mask id="mask-8" fill="white">
                                <use xlink:href="#path-7"></use>
                            </mask>
                            <g id="Clip-311"></g>
                            <polygon id="Fill-310" fill="#99DCFF" mask="url(#mask-8)" points="9.2208 101.1836 0.9488 -1.0534 29.8498 22.3336 38.1218 124.5716"></polygon>
                        </g>
                        <g id="Group-315" transform="translate(7.000000, 102.000000)">
                            <mask id="mask-10" fill="white">
                                <use xlink:href="#path-9"></use>
                            </mask>
                            <g id="Clip-314"></g>
                            <polygon id="Fill-313" fill="#C7E7F8" mask="url(#mask-10)" points="0.6451 7.6738 29.5461 31.0628 122.1221 23.5708 93.2211 0.1838"></polygon>
                        </g>
                        <path d="M97.0343,104.5273 C99.0463,104.3643 123.7913,117.5323 119.4513,122.8783 C114.9633,128.4043 106.2273,108.9173 95.3013,108.1443 C76.9653,106.8463 43.1993,115.1413 55.4423,107.8923 C57.8433,106.4703 88.2873,105.2353 97.0343,104.5273" id="Fill-317" fill="#FFFFFF"></path>
                        <g id="Group-328" transform="translate(0.000000, 4.000000)">
                            <g id="Group-321" transform="translate(0.000000, 3.000000)">
                                <mask id="mask-12" fill="white">
                                    <use xlink:href="#path-11"></use>
                                </mask>
                                <g id="Clip-320"></g>
                                <polygon id="Fill-319" fill="#99DCFF" mask="url(#mask-12)" points="7.6451 102.6738 -0.6269 0.4368 28.2741 23.8248 36.5461 126.0628"></polygon>
                            </g>
                            <path d="M118.7281,49.9199 C126.9331,54.4119 114.7881,69.4399 119.2281,88.1079 C121.4731,97.5489 128.7381,117.6099 123.0161,113.5849 C99.2131,96.8409 115.0921,70.5779 111.9371,62.0269 C107.8971,51.0739 112.2561,46.3769 118.7281,49.9199" id="Fill-322" fill="#FFFFFF"></path>
                            <path d="M87.2819,2.6025 C90.9429,4.9845 91.5459,30.6555 92.3389,50.8445 C92.9149,65.5105 98.7119,79.5325 94.7989,81.2395 C79.0649,88.1035 94.0529,26.7335 84.3609,12.3985 C68.4129,-11.1885 38.7489,20.0385 37.3999,5.6825 C37.1629,3.1605 79.4419,-2.4995 87.2819,2.6025" id="Fill-324" fill="#FFFFFF"></path>
                        </g>
                    </g>
                </g>
                <g id="Ice-cube-tbd" transform="translate(680.000000, 520.625000)">
                    <g id="Group-331" transform="translate(18.000000, 0.000000)">
                        <mask id="mask-14" fill="white">
                            <use xlink:href="#path-13"></use>
                        </mask>
                        <g id="Clip-330"></g>
                        <polygon id="Fill-329" fill="#99DCFF" mask="url(#mask-14)" points="0.1012 5.2236 5.7942 68.8196 73.2342 62.7836 67.5412 -0.8134"></polygon>
                    </g>
                    <g id="Group-334" transform="translate(0.000000, 5.000000)">
                        <mask id="mask-16" fill="white">
                            <use xlink:href="#path-15"></use>
                        </mask>
                        <g id="Clip-333"></g>
                        <polygon id="Fill-332" fill="#99DCFF" mask="url(#mask-16)" points="-0.0238 17.8721 5.6692 81.4691 23.7942 63.8191 18.1012 0.2241"></polygon>
                    </g>
                    <g id="Group-340" transform="translate(5.000000, 62.000000)">
                        <g id="Group-337">
                            <mask id="mask-18" fill="white">
                                <use xlink:href="#path-17"></use>
                            </mask>
                            <g id="Clip-336"></g>
                            <polygon id="Fill-335" fill="#F3FDFF" mask="url(#mask-18)" points="0.6696 24.4688 18.7946 6.8198 86.2336 0.7828 68.1096 18.4318"></polygon>
                        </g>
                        <path d="M72.5348,12.8379 L82.4398,2.4219 L18.8708,7.6789 C18.8708,7.6789 71.2388,3.8579 76.3178,5.5679 C78.9598,6.4589 72.5348,12.8379 72.5348,12.8379" id="Fill-338" fill="#C7E7F8"></path>
                    </g>
                    <path d="M21.3121,68.6084 C23.4481,64.9524 19.0471,26.7954 19.0471,26.7954 C19.0471,26.7954 21.5831,57.2794 18.1491,66.2934 C16.3951,70.8984 12.9501,79.7534 12.9501,79.7534 C12.9501,79.7534 18.7981,72.9134 21.3121,68.6084" id="Fill-341" fill="#00264D"></path>
                    <g id="Group-345" transform="translate(0.000000, 16.000000)">
                        <mask id="mask-20" fill="white">
                            <use xlink:href="#path-19"></use>
                        </mask>
                        <g id="Clip-344"></g>
                        <polygon id="Fill-343" fill="#C7E7F8" mask="url(#mask-20)" points="-0.0238 6.8721 5.6692 70.4691 73.1102 64.4321 67.4162 0.8351"></polygon>
                    </g>
                    <g id="Group-348" transform="translate(67.000000, 0.000000)">
                        <mask id="mask-22" fill="white">
                            <use xlink:href="#path-21"></use>
                        </mask>
                        <g id="Clip-347"></g>
                        <polygon id="Fill-346" fill="#99DCFF" mask="url(#mask-22)" points="0.4166 16.835 6.1096 80.432 24.2336 62.783 18.5416 -0.813"></polygon>
                    </g>
                    <g id="Group-354" transform="translate(1.000000, 0.000000)">
                        <g id="Group-351">
                            <mask id="mask-24" fill="white">
                                <use xlink:href="#path-23"></use>
                            </mask>
                            <g id="Clip-350"></g>
                            <polygon id="Fill-349" fill="#C7E7F8" mask="url(#mask-24)" points="-1.0238 22.8721 17.1012 5.2241 84.5412 -0.8139 66.4162 16.8351"></polygon>
                        </g>
                        <path d="M63.858,15.7646 C65.324,15.6336 81.623,4.7246 77.892,1.9476 C74.035,-0.9234 69.97,12.0196 62.199,13.7466 C49.159,16.6476 23.927,15.4416 33.558,18.4776 C35.448,19.0726 57.486,16.3346 63.858,15.7646" id="Fill-352" fill="#FFFFFF"></path>
                    </g>
                    <path d="M86.2252,44.2852 C91.6152,40.5912 81.1672,32.7762 82.2352,20.8272 C82.7752,14.7852 85.7162,1.6572 82.0582,4.7812 C66.8452,17.7732 81.2562,32.0442 79.9612,37.6452 C78.3022,44.8202 81.9732,47.1982 86.2252,44.2852" id="Fill-355" fill="#FFFFFF"></path>
                    <path d="M68.9948,76.8887 C71.3568,75.0087 68.8678,59.2087 67.1388,46.7467 C65.8828,37.6947 68.4548,28.4377 65.4458,27.8407 C53.3488,25.4407 71.1178,61.3257 65.7788,71.2217 C56.9938,87.5047 32.1008,71.7767 32.7658,80.7277 C32.8828,82.2997 63.9368,80.9147 68.9948,76.8887" id="Fill-357" fill="#FFFFFF"></path>
                    <path d="M1.4,23.6514 C2.19,37.1374 3.651,67.4194 6.424,70.4684 C7.354,71.4914 8.241,72.1374 8.263,67.7394 C8.29,62.7294 8.582,58.0914 7.027,53.9254 C2.03,40.5374 7.466,38.1624 5.26,29.5344 C4.619,27.0274 1.349,22.7934 1.4,23.6514" id="Fill-359" fill="#FFFFFF"></path>
                </g>
                <path d="M185.0719,689.625 C347.2979,645.649 500.0039,485.645 595.6839,533.709 C658.2389,565.133 787.5929,602.46 880.0719,588.625 C1069.7319,560.251 1136.3689,268.484 1223.1669,288.908 C1254.6879,296.324 1278.1409,416.977 1288.7009,513.615 C1297.0209,589.771 1417.6939,716.558 1417.6939,716.558 L185.0719,689.625 Z" id="Snow-Front" fill="#F3FAFD"></path>
                <g id="Ten-1" transform="translate(476.000000, 524.625000)">
                    <polyline id="Fill-364" fill="#990815" points="97.3619 136.9004 0.9769 11.4774 1.2159 9.6454 13.6559 0.0864"></polyline>
                    <polygon id="Fill-366" fill="#660000" points="110.837 126.5459 110.597 128.3789 13.416 1.9189 13.656 0.0859"></polygon>
                    <polygon id="Fill-368" fill="#CD1F2E" points="110.5968 128.3789 98.1588 137.9379 0.9768 11.4779 13.4158 1.9189"></polygon>
                    <polygon id="Fill-370" fill="#F37921" points="21.9381 15.1543 11.5721 23.1203 3.6071 12.7543 13.9721 4.7893"></polygon>
                    <polygon id="Fill-372" fill="#F37921" points="31.4972 27.5928 21.1312 35.5588 13.1652 25.1938 23.5312 17.2278"></polygon>
                    <polygon id="Fill-374" fill="#F37921" points="41.0558 40.0313 30.6898 47.9973 22.7248 37.6323 33.0898 29.6663"></polygon>
                    <polygon id="Fill-376" fill="#F37921" points="50.6144 52.4697 40.2494 60.4357 32.2834 50.0707 42.6494 42.1047"></polygon>
                    <polygon id="Fill-378" fill="#F37921" points="60.1735 64.9092 49.8075 72.8742 41.8415 62.5092 52.2075 54.5432"></polygon>
                    <polygon id="Fill-380" fill="#F37921" points="69.7321 77.3477 59.3661 85.3137 51.4011 74.9477 61.7661 66.9817"></polygon>
                    <polygon id="Fill-382" fill="#F37921" points="79.2911 89.7861 68.9251 97.7521 60.9591 87.3861 71.3251 79.4211"></polygon>
                    <polygon id="Fill-384" fill="#F37921" points="88.8497 102.2246 78.4837 110.1906 70.5187 99.8256 80.8837 91.8596"></polygon>
                    <polygon id="Fill-386" fill="#F37921" points="98.4083 114.6631 88.0433 122.6291 80.0773 112.2641 90.4433 104.2981"></polygon>
                    <polygon id="Fill-388" fill="#F37921" points="107.9674 127.1016 97.6014 135.0676 89.6354 124.7026 100.0014 116.7366"></polygon>
                </g>
                <g id="Ten-2" transform="translate(745.000000, 517.625000)">
                    <polyline id="Fill-390" fill="#990815" points="1.111 133.5723 87.515 1.0773 89.323 0.6943 102.465 9.2643"></polyline>
                    <polygon id="Fill-392" fill="#660000" points="15.3453 142.8555 13.5363 143.2365 100.6563 9.6455 102.4643 9.2645"></polygon>
                    <polygon id="Fill-394" fill="#CD1F2E" points="13.5367 143.2363 0.3957 134.6673 87.5157 1.0773 100.6557 9.6453"></polygon>
                    <polygon id="Fill-396" fill="#F37921" points="90.9918 22.0723 80.0418 14.9303 87.1818 3.9803 98.1328 11.1223"></polygon>
                    <polygon id="Fill-398" fill="#F37921" points="82.4225 35.2119 71.4725 28.0709 78.6125 17.1209 89.5635 24.2619"></polygon>
                    <polygon id="Fill-400" fill="#F37921" points="73.8531 48.3516 62.9031 41.2106 70.0431 30.2606 80.9941 37.4026"></polygon>
                    <polygon id="Fill-402" fill="#F37921" points="65.2838 61.4922 54.3338 54.3512 61.4748 43.4012 72.4258 50.5422"></polygon>
                    <polygon id="Fill-404" fill="#F37921" points="56.7155 74.6318 45.7655 67.4908 52.9055 56.5408 63.8565 63.6818"></polygon>
                    <polygon id="Fill-406" fill="#F37921" points="48.1461 87.7725 37.1961 80.6305 44.3361 69.6815 55.2871 76.8225"></polygon>
                    <polygon id="Fill-408" fill="#F37921" points="39.5768 100.9121 28.6268 93.7711 35.7678 82.8211 46.7178 89.9621"></polygon>
                    <polygon id="Fill-410" fill="#F37921" points="31.0074 114.0527 20.0584 106.9107 27.1984 95.9607 38.1494 103.1027"></polygon>
                    <polygon id="Fill-412" fill="#F37921" points="22.4391 127.1924 11.4891 120.0514 18.6291 109.1014 29.5801 116.2424"></polygon>
                    <polygon id="Fill-414" fill="#F37921" points="13.8698 140.332 2.9198 133.191 10.0598 122.241 21.0108 129.383"></polygon>
                </g>
                <g id="Hundred-1" transform="translate(258.000000, 569.625000)">
                    <polygon id="Fill-416" fill="#490080" points="165.7799 42.6367 120.9479 169.5757 0.8969 127.1767 45.7289 0.2377"></polygon>
                    <polygon id="Fill-418" fill="#BC7FE3" points="165.7799 42.6367 167.6899 46.6317 47.6379 4.2327 45.7289 0.2377"></polygon>
                    <polygon id="Fill-422" fill="#7029A5" points="167.6896 46.6318 122.8576 173.5708 2.8066 131.1718 47.6386 4.2328"></polygon>
                    <polygon id="Fill-444" fill="#9547CC" points="22.9552 111.7256 19.4802 121.5656 9.6402 118.0906 13.1152 108.2496"></polygon>
                    <polygon id="Fill-446" fill="#9547CC" points="34.7638 115.8955 31.2878 125.7365 21.4478 122.2605 24.9238 112.4205"></polygon>
                    <polygon id="Fill-464" fill="#9547CC" points="27.4733 98.9336 23.9973 108.7736 14.1573 105.2976 17.6333 95.4576"></polygon>
                    <polygon id="Fill-466" fill="#9547CC" points="39.2814 103.1035 35.8064 112.9445 25.9664 109.4685 29.4414 99.6275"></polygon>
                    <polygon id="Fill-468" fill="#9547CC" points="51.09 107.2744 47.614 117.1144 37.774 113.6384 41.25 103.7984"></polygon>
                    <polygon id="Fill-470" fill="#9547CC" points="62.8981 111.4443 59.4231 121.2853 49.5831 117.8093 53.0581 107.9683"></polygon>
                    <polygon id="Fill-472" fill="#9547CC" points="74.7067 115.6152 71.2307 125.4552 61.3907 121.9792 64.8667 112.1392"></polygon>
                    <polygon id="Fill-484" fill="#9547CC" points="31.9913 86.1406 28.5153 95.9816 18.6753 92.5056 22.1513 82.6646"></polygon>
                    <polygon id="Fill-486" fill="#9547CC" points="43.7994 90.3115 40.3244 100.1515 30.4844 96.6755 33.9594 86.8355"></polygon>
                    <polygon id="Fill-488" fill="#9547CC" points="55.608 94.4814 52.132 104.3224 42.292 100.8464 45.768 91.0054"></polygon>
                    <polygon id="Fill-490" fill="#9547CC" points="67.4161 98.6523 63.9401 108.4923 54.1011 105.0163 57.5761 95.1763"></polygon>
                    <polygon id="Fill-492" fill="#9547CC" points="79.2242 102.8223 75.7492 112.6633 65.9092 109.1873 69.3842 99.3473"></polygon>
                    <polygon id="Fill-494" fill="#9547CC" points="91.0328 106.9932 87.5568 116.8332 77.7168 113.3572 81.1928 103.5172"></polygon>
                    <polygon id="Fill-496" fill="#9547CC" points="102.8409 111.1631 99.3659 121.0041 89.5259 117.5281 93.0009 107.6881"></polygon>
                    <polygon id="Fill-498" fill="#9547CC" points="114.6495 115.334 111.1735 125.174 101.3335 121.698 104.8095 111.858"></polygon>
                    <polygon id="Fill-504" fill="#9547CC" points="36.5089 73.3486 33.0339 83.1886 23.1939 79.7136 26.6689 69.8726"></polygon>
                    <polygon id="Fill-506" fill="#9547CC" points="48.3175 77.5186 44.8415 87.3596 35.0015 83.8836 38.4775 74.0436"></polygon>
                    <polygon id="Fill-508" fill="#9547CC" points="60.1256 81.6895 56.6506 91.5295 46.8106 88.0545 50.2856 78.2135"></polygon>
                    <polygon id="Fill-510" fill="#9547CC" points="71.9342 85.8594 68.4582 95.7004 58.6182 92.2244 62.0942 82.3844"></polygon>
                    <polygon id="Fill-512" fill="#9547CC" points="83.7423 90.0303 80.2673 99.8703 70.4273 96.3953 73.9023 86.5543"></polygon>
                    <polygon id="Fill-514" fill="#9547CC" points="95.5509 94.2002 92.0749 104.0412 82.2349 100.5652 85.7109 90.7252"></polygon>
                    <polygon id="Fill-516" fill="#9547CC" points="107.359 98.3711 103.884 108.2111 94.044 104.7361 97.519 94.8951"></polygon>
                    <polygon id="Fill-518" fill="#9547CC" points="119.1671 102.541 115.6921 112.382 105.8521 108.906 109.3271 99.066"></polygon>
                    <polygon id="Fill-520" fill="#9547CC" points="130.9757 106.7119 127.4997 116.5519 117.6607 113.0769 121.1357 103.2359"></polygon>
                    <polygon id="Fill-522" fill="#9547CC" points="142.7838 110.8818 139.3088 120.7228 129.4688 117.2468 132.9438 107.4068"></polygon>
                    <polygon id="Fill-524" fill="#9547CC" points="41.027 60.5566 37.552 70.3966 27.712 66.9206 31.187 57.0806"></polygon>
                    <polygon id="Fill-526" fill="#9547CC" points="52.8356 64.7266 49.3596 74.5666 39.5196 71.0916 42.9956 61.2506"></polygon>
                    <polygon id="Fill-528" fill="#9547CC" points="64.6437 68.8975 61.1687 78.7375 51.3287 75.2615 54.8037 65.4215"></polygon>
                    <polygon id="Fill-530" fill="#9547CC" points="76.4523 73.0674 72.9763 82.9074 63.1363 79.4324 66.6123 69.5914"></polygon>
                    <polygon id="Fill-532" fill="#9547CC" points="88.2604 77.2383 84.7844 87.0783 74.9454 83.6023 78.4204 73.7623"></polygon>
                    <polygon id="Fill-534" fill="#9547CC" points="100.0685 81.4082 96.5935 91.2492 86.7535 87.7732 90.2285 77.9322"></polygon>
                    <polygon id="Fill-536" fill="#9547CC" points="111.8771 85.5791 108.4011 95.4191 98.5611 91.9431 102.0371 82.1031"></polygon>
                    <polygon id="Fill-538" fill="#9547CC" points="123.6852 89.749 120.2102 99.59 110.3702 96.114 113.8452 86.273"></polygon>
                    <polygon id="Fill-540" fill="#9547CC" points="135.4938 93.9199 132.0178 103.7599 122.1778 100.2839 125.6538 90.4439"></polygon>
                    <polygon id="Fill-542" fill="#9547CC" points="147.3019 98.0898 143.8269 107.9308 133.9869 104.4548 137.4619 94.6138"></polygon>
                    <polygon id="Fill-544" fill="#9547CC" points="45.545 47.7637 42.069 57.6047 32.23 54.1287 35.705 44.2877"></polygon>
                    <polygon id="Fill-546" fill="#9547CC" points="57.3531 51.9346 53.8781 61.7746 44.0381 58.2986 47.5131 48.4586"></polygon>
                    <polygon id="Fill-548" fill="#9547CC" points="69.1617 56.1045 65.6857 65.9455 55.8457 62.4695 59.3217 52.6285"></polygon>
                    <polygon id="Fill-550" fill="#9547CC" points="80.9698 60.2754 77.4948 70.1154 67.6548 66.6394 71.1298 56.7994"></polygon>
                    <polygon id="Fill-552" fill="#9547CC" points="92.7784 64.4453 89.3024 74.2863 79.4624 70.8103 82.9384 60.9693"></polygon>
                    <polygon id="Fill-554" fill="#9547CC" points="104.5865 68.6162 101.1115 78.4562 91.2715 74.9802 94.7465 65.1402"></polygon>
                    <polygon id="Fill-556" fill="#9547CC" points="116.3951 72.7861 112.9191 82.6271 103.0791 79.1511 106.5551 69.3101"></polygon>
                    <polygon id="Fill-558" fill="#9547CC" points="128.2032 76.957 124.7272 86.797 114.8882 83.321 118.3632 73.481"></polygon>
                    <polygon id="Fill-560" fill="#9547CC" points="140.0114 81.127 136.5364 90.968 126.6964 87.492 130.1714 77.651"></polygon>
                    <polygon id="Fill-562" fill="#9547CC" points="151.8199 85.2979 148.3439 95.1379 138.5049 91.6619 141.9799 81.8219"></polygon>
                    <polygon id="Fill-564" fill="#9547CC" points="50.0631 34.9717 46.5871 44.8117 36.7471 41.3357 40.2231 31.4957"></polygon>
                    <polygon id="Fill-566" fill="#9547CC" points="61.8712 39.1416 58.3962 48.9826 48.5562 45.5066 52.0312 35.6666"></polygon>
                    <polygon id="Fill-568" fill="#9547CC" points="73.6798 43.3125 70.2038 53.1525 60.3638 49.6765 63.8398 39.8365"></polygon>
                    <polygon id="Fill-570" fill="#9547CC" points="85.4879 47.4824 82.0129 57.3234 72.1729 53.8474 75.6479 44.0074"></polygon>
                    <polygon id="Fill-572" fill="#9547CC" points="97.296 51.6533 93.821 61.4933 83.981 58.0183 87.456 48.1773"></polygon>
                    <polygon id="Fill-574" fill="#9547CC" points="109.1046 55.8232 105.6286 65.6642 95.7896 62.1882 99.2646 52.3482"></polygon>
                    <polygon id="Fill-576" fill="#9547CC" points="120.9127 59.9941 117.4377 69.8341 107.5977 66.3591 111.0727 56.5181"></polygon>
                    <polygon id="Fill-578" fill="#9547CC" points="132.7213 64.1641 129.2453 74.0051 119.4053 70.5291 122.8813 60.6891"></polygon>
                    <polygon id="Fill-580" fill="#9547CC" points="144.5294 68.335 141.0544 78.175 131.2144 74.7 134.6894 64.859"></polygon>
                    <polygon id="Fill-582" fill="#9547CC" points="156.338 72.5049 152.862 82.3459 143.022 78.8699 146.498 69.0299"></polygon>
                    <polygon id="Fill-584" fill="#9547CC" points="54.5812 22.1787 51.1052 32.0197 41.2652 28.5437 44.7412 18.7037"></polygon>
                    <polygon id="Fill-586" fill="#9547CC" points="66.3893 26.3496 62.9133 36.1896 53.0743 32.7146 56.5493 22.8736"></polygon>
                    <polygon id="Fill-588" fill="#9547CC" points="78.1974 30.5195 74.7224 40.3605 64.8824 36.8845 68.3574 27.0445"></polygon>
                    <polygon id="Fill-590" fill="#9547CC" points="90.006 34.6904 86.53 44.5304 76.69 41.0554 80.166 31.2144"></polygon>
                    <polygon id="Fill-592" fill="#9547CC" points="101.8141 38.8604 98.3391 48.7014 88.4991 45.2254 91.9741 35.3854"></polygon>
                    <polygon id="Fill-594" fill="#9547CC" points="113.6227 43.0313 110.1467 52.8713 100.3067 49.3963 103.7827 39.5553"></polygon>
                    <polygon id="Fill-596" fill="#9547CC" points="125.4308 47.2021 121.9558 57.0421 112.1158 53.5661 115.5908 43.7261"></polygon>
                    <polygon id="Fill-598" fill="#9547CC" points="137.2394 51.3721 133.7634 61.2121 123.9234 57.7371 127.3994 47.8961"></polygon>
                    <polygon id="Fill-600" fill="#9547CC" points="149.0475 55.543 145.5715 65.383 135.7325 61.907 139.2075 52.067"></polygon>
                    <polygon id="Fill-602" fill="#9547CC" points="160.8556 59.7129 157.3806 69.5529 147.5406 66.0779 151.0156 56.2369"></polygon>
                    <polygon id="Fill-604" fill="#9547CC" points="59.0988 9.3867 55.6238 19.2277 45.7838 15.7517 49.2588 5.9107"></polygon>
                    <polygon id="Fill-606" fill="#9547CC" points="70.9073 13.5576 67.4313 23.3976 57.5913 19.9216 61.0673 10.0816"></polygon>
                    <polygon id="Fill-608" fill="#9547CC" points="82.7155 17.7275 79.2405 27.5685 69.4005 24.0925 72.8755 14.2515"></polygon>
                    <polygon id="Fill-610" fill="#9547CC" points="94.524 21.8984 91.048 31.7384 81.208 28.2624 84.684 18.4224"></polygon>
                    <polygon id="Fill-612" fill="#9547CC" points="106.3322 26.0684 102.8572 35.9094 93.0172 32.4334 96.4922 22.5924"></polygon>
                    <polygon id="Fill-614" fill="#9547CC" points="118.1403 30.2393 114.6653 40.0793 104.8253 36.6033 108.3003 26.7633"></polygon>
                    <polygon id="Fill-616" fill="#9547CC" points="129.9489 34.4092 126.4729 44.2502 116.6339 40.7742 120.1089 30.9332"></polygon>
                    <polygon id="Fill-618" fill="#9547CC" points="141.757 38.5801 138.282 48.4201 128.442 44.9441 131.917 35.1041"></polygon>
                    <polygon id="Fill-620" fill="#9547CC" points="153.5656 42.75 150.0896 52.591 140.2496 49.115 143.7256 39.274"></polygon>
                    <polygon id="Fill-622" fill="#9547CC" points="165.3737 46.9209 161.8987 56.7609 152.0587 53.2849 155.5337 43.4449"></polygon>
                </g>
                <path d="M438.4859,661.3131 C311.8119,659.5071 227.8729,616.5271 183.1019,626.5631 C160.5339,631.6221 154.9949,664.4751 161.9299,680.8741 C169.6769,699.1931 314.2369,709.3241 339.1969,718.7861 C513.9309,785.0281 481.4149,661.9261 438.4859,661.3131 Z" id="Fill-659" fill="#FFFFFF"></path>
                <path d="M781,645 C633.448786,643.194 589.202572,596.5271 537.052838,606.5631 C510.765393,611.6221 504.313507,676.4751 512.391468,692.8741 C521.415256,711.1931 689.800271,689.3241 718.873943,698.7861 C922.405953,765.0281 831.004153,645.613 781,645 Z" id="Fill-661" fill="#FFFFFF"></path>
                <g id="Seal" transform="translate(762.000000, 317.000000)">
                    <path d="M266.5172,90.8184 C285.9662,87.8974 283.1832,101.7194 321.6412,111.9234 C339.9532,116.7824 352.6882,118.6894 354.4392,124.1184 C356.9652,131.9534 334.2322,141.7144 310.3342,147.0084 C279.1742,153.9144 245.2332,162.4334 240.2742,134.8014 C237.0472,116.8274 250.8572,93.1714 266.5172,90.8184" id="Flipper-L" fill="#E4E4E4"></path>
                    <path d="M206.5768,153.1113 C224.6918,185.5253 229.2258,246.0613 171.3638,245.6223 C141.7968,245.3963 89.4258,214.6113 78.5008,153.6363 C68.6808,98.8303 8.4698,145.0773 0.9378,127.7433 C-4.9432,114.2073 41.8528,108.2773 41.8528,108.2773 C41.8528,108.2773 4.3358,73.4113 34.3968,69.6983 C42.9138,68.6473 61.2968,108.3923 80.0338,110.8853 C98.2898,113.3153 127.6968,104.8373 147.7568,105.4913 C170.6518,106.2373 193.4758,129.6743 206.5768,153.1113" id="Tail" fill="#F6F6F6"></path>
                    <g id="Beanie-B" transform="translate(194.000000, 22.000000)">
                        <mask id="mask-26" fill="white">
                            <use xlink:href="#path-25"></use>
                        </mask>
                        <use id="Mask" fill="#FF9E59" xlink:href="#path-25"></use>
                        <path d="M34.2216797,10.0273438 C36.3772786,9.80664062 38.5328776,9.5859375 40.6884766,9.36523438" id="Path-24" stroke="#F75E00" mask="url(#mask-26)"></path>
                        <path d="M22.8795,3.8789 C17.7025,7.3139 18.7185,15.5849 24.5715,17.6659 C30.4255,19.7459 37.6815,10.4579 34.2465,5.2819 C30.8135,0.1069 28.0555,0.4439 22.8795,3.8789" id="Fill-738" fill="#B24825" mask="url(#mask-26)"></path>
                    </g>
                    <g id="Head" transform="translate(97.000000, 19.000000)">
                        <mask id="mask-28" fill="white">
                            <use xlink:href="#path-27"></use>
                        </mask>
                        <use id="Mask" fill="#FFFFFF" xlink:href="#path-27"></use>
                        <path d="M106.6715,-19.2119 C107.4425,-6.1349 21.6225,36.5481 32.3205,92.3461 C39.4405,129.4741 88.9035,149.8861 95.4975,205.0491 C97.0635,218.1431 103.3505,242.2001 92.3655,240.3971 C-18.0135,222.2811 -15.1565,177.1481 5.9845,121.3751 C-27.9205,27.5761 104.4935,-56.1479 106.6715,-19.2119" id="Fill-743" fill="#E4E4E4" mask="url(#mask-28)"></path>
                    </g>
                    <path d="M235.777,50.0508 C233.775,51.0488 230.671,48.8628 228.841,45.1688 C227.013,41.4748 227.154,37.6718 229.156,36.6748 C231.159,35.6768 234.263,37.8628 236.092,41.5568 C237.921,45.2498 237.78,49.0538 235.777,50.0508" id="Eye-L" fill="#303B40"></path>
                    <g id="Muzzle" transform="translate(177.000000, 47.000000)">
                        <mask id="mask-30" fill="white">
                            <use xlink:href="#path-29"></use>
                        </mask>
                        <use id="Mask" fill="#E4E4E4" xlink:href="#path-29"></use>
                        <path d="M9.1373,26.7539 C9.1373,26.7539 -9.7767,64.5379 21.9553,86.8229 C57.7603,111.9689 107.2283,77.7579 123.0263,60.3389 C132.1733,50.2519 139.7893,74.8739 105.1673,95.2889 C69.0713,116.5729 13.0643,136.9729 -3.4517,100.8629 C-23.0877,57.9339 -4.0987,22.3299 9.1373,26.7539" id="Shadow" fill="#CCCCCC" mask="url(#mask-30)"></path>
                        <g id="Whiskers-R" mask="url(#mask-30)" fill="#808080">
                            <g transform="translate(47.000000, 10.000000)">
                                <path d="M3.3824,2.3301 C3.4764,3.0921 2.9344,3.7841 2.1734,3.8781 C1.4114,3.9721 0.7184,3.4301 0.6254,2.6691 C0.5314,1.9071 1.0724,1.2141 1.8344,1.1211 C2.5964,1.0271 3.2884,1.5681 3.3824,2.3301" id="Fill-754"></path>
                                <path d="M9.5739,7.168 C9.6679,7.929 9.1259,8.622 8.3649,8.716 C7.6029,8.81 6.9099,8.268 6.8169,7.506 C6.7229,6.745 7.2649,6.052 8.0259,5.958 C8.7879,5.865 9.4809,6.406 9.5739,7.168" id="Fill-756"></path>
                                <path d="M11.6549,1.3145 C11.7479,2.0765 11.2069,2.7685 10.4449,2.8625 C9.6829,2.9565 8.9909,2.4145 8.8969,1.6535 C8.8029,0.8915 9.3449,0.1985 10.1059,0.1055 C10.8679,0.0115 11.5609,0.5525 11.6549,1.3145" id="Fill-758"></path>
                            </g>
                        </g>
                        <g id="Whiskers-L" mask="url(#mask-30)" fill="#808080">
                            <g transform="translate(80.000000, 4.000000)">
                                <path d="M3.1315,1.5107 C3.2255,2.2727 2.6845,2.9647 1.9225,3.0587 C1.1605,3.1527 0.4685,2.6107 0.3745,1.8497 C0.2805,1.0877 0.8225,0.3947 1.5835,0.3017 C2.3455,0.2077 3.0385,0.7487 3.1315,1.5107" id="Fill-760"></path>
                                <path d="M9.3239,6.3486 C9.4169,7.1106 8.8759,7.8026 8.1139,7.8966 C7.3529,7.9906 6.6599,7.4486 6.5659,6.6866 C6.4719,5.9256 7.0139,5.2326 7.7759,5.1386 C8.5369,5.0456 9.2299,5.5866 9.3239,6.3486" id="Fill-762"></path>
                            </g>
                        </g>
                        <g id="Mouth" mask="url(#mask-30)">
                            <g transform="translate(24.000000, 19.000000)">
                                <mask id="mask-32" fill="white">
                                    <use xlink:href="#path-31"></use>
                                </mask>
                                <use id="Mask" stroke="none" fill="#4D4D4D" fill-rule="evenodd" xlink:href="#path-31"></use>
                                <path d="M25.9528,39.377 C35.0838,31.577 52.5918,32.565 57.8488,38.742 C62.2078,43.865 60.5108,43.957 57.7158,50.852 C54.9218,57.746 26.3958,55.773 20.3048,53.314 C14.2138,50.854 20.4558,44.073 25.9528,39.377" id="Fill-769" stroke="none" fill="#F6A3B9" fill-rule="evenodd" mask="url(#mask-32)"></path>
                            </g>
                        </g>
                    </g>
                    <path d="M247.9449,45.3271 L245.9289,45.9171 C242.7389,46.8511 241.7539,50.8881 244.1539,53.1871 L245.6679,54.6381 C248.0699,56.9391 252.0619,55.7781 252.8559,52.5481 L253.3579,50.5081 C254.1529,47.2711 251.1419,44.3901 247.9449,45.3271" id="Nose" fill="#323232"></path>
                    <path d="M185.1559,65.6514 C182.4939,67.2854 178.3609,65.3744 175.9229,61.3824 C173.4849,57.3904 173.6669,52.8314 176.3279,51.1974 C178.9899,49.5634 183.1229,51.4744 185.5609,55.4664 C187.9989,59.4584 187.8169,64.0174 185.1559,65.6514" id="Eye-R" fill="#303B40"></path>
                    <g id="Beanie-F" transform="translate(52.000000, 0.000000)">
                        <g id="Beanie-Ball" transform="translate(0.000000, 49.000000)">
                            <path d="M7.0143,8.8271 C10.7683,4.4421 18.3773,1.3391 22.7503,5.0831 C27.1223,8.8261 25.7163,15.3651 21.9623,19.7501 C18.2083,24.1351 9.9243,26.2651 5.5523,22.5221 C1.1793,18.7791 3.2603,13.2121 7.0143,8.8271" fill="#FFFFFF"></path>
                            <path d="M10.2158203,7.67480469 C9.4235026,6.38639323 8.6311849,5.09798177 7.83886719,3.80957031" id="Path-2" stroke="#C7E7F8"></path>
                            <path d="M8.23828125,11.3642578 C6.38639323,11.5035807 4.53450521,11.6429036 2.68261719,11.7822266" id="Path-25" stroke="#C7E7F8"></path>
                            <path d="M4.94921875,17.2138672 C3.7639974,17.9912109 2.57877604,18.7685547 1.39355469,19.5458984" id="Path-26" stroke="#C7E7F8"></path>
                            <path d="M6.06054688,20.6601562 C5.37923177,22.9348958 4.69791667,25.2096354 4.01660156,27.484375" id="Path-27" stroke="#C7E7F8"></path>
                            <path d="M9.4609375,22.5058594 C9.54980469,23.9446615 9.63867188,25.3834635 9.72753906,26.8222656" id="Path-28" stroke="#C7E7F8"></path>
                            <path d="M18.2607422,21.2177734 C17.7643229,23.3180339 17.2679036,25.4182943 16.7714844,27.5185547" id="Path-29" stroke="#C7E7F8"></path>
                            <path d="M22.8388672,16.9697266 C22.6240234,18.1302083 22.4091797,19.2906901 22.1943359,20.4511719" id="Path-30" stroke="#C7E7F8"></path>
                            <path d="M23.7275391,14.3583984 C24.9941406,14.242513 26.2607422,14.1266276 27.5273438,14.0107422" id="Path-31" stroke="#C7E7F8"></path>
                            <path d="M15.6386719,5.1328125 C14.6162109,3.45019531 13.59375,1.76757812 12.5712891,0.0849609375" id="Path-32" stroke="#C7E7F8"></path>
                            <path d="M11.1269531,13.7324219 C9.68261719,13.9876302 8.23828125,14.2428385 6.79394531,14.4980469" id="Path-33" stroke="#C7E7F8"></path>
                            <path d="M14.9716797,15.9599609 C13.2457682,17.1669922 11.5198568,18.3740234 9.79394531,19.5810547" id="Path-34" stroke="#C7E7F8"></path>
                            <path d="M15.3046875,10.4248047 C14.0530599,10.0185547 12.8014323,9.61230469 11.5498047,9.20605469" id="Path-35" stroke="#C7E7F8"></path>
                            <path d="M17.9941406,13.3144531 C17.6829427,14.4632161 17.3717448,15.6119792 17.0605469,16.7607422" id="Path-36" stroke="#C7E7F8"></path>
                            <path d="M23.75,11.3642578 C25.1647135,11.3180339 26.5794271,11.2718099 27.9941406,11.2255859" id="Path-37" stroke="#C7E7F8"></path>
                            <path d="M18.7714844,5.02832031 C18.9716797,4.11165365 19.171875,3.19498698 19.3720703,2.27832031" id="Path-38" stroke="#C7E7F8"></path>
                            <path d="M4.4609375,14.8457031 C3.06835938,14.5904948 1.67578125,14.3352865 0.283203125,14.0800781" id="Path-39" stroke="#C7E7F8"></path>
                            <path d="M13.1943359,22.5751953 C13.0016276,23.6891276 12.8089193,24.8030599 12.6162109,25.9169922" id="Path-40" stroke="#C7E7F8"></path>
                        </g>
                        <g id="Beanie-Top" transform="translate(18.000000, 0.000000)">
                            <mask id="mask-34" fill="white">
                                <use xlink:href="#path-33"></use>
                            </mask>
                            <use id="Mask" fill="#F37921" xlink:href="#path-33"></use>
                            <path d="M-42.7533,190.8877 C-33.6973,193.8277 18.3997,143.9997 31.7087,59.1967 C32.8957,51.6297 30.0077,28.1407 15.0617,44.4177 C-34.1423,98.0067 -42.7533,190.8877 -42.7533,190.8877" id="Beanie-Shadow" fill="#E9670A" mask="url(#mask-34)"></path>
                        </g>
                        <g id="Beanie-Rim" transform="translate(31.000000, 8.000000)">
                            <mask id="mask-36" fill="white">
                                <use xlink:href="#path-35"></use>
                            </mask>
                            <use id="Mask" fill="#FF9E59" xlink:href="#path-35"></use>
                            <path d="M20.1992188,118.500977 C18.139974,118.640299 15.6494044,120.187715 14.0214844,118.918945 C12.6744126,117.869064 1.75114626,97.8013892 1.37695312,94.3740234" id="Path-3" stroke="#F75E00" mask="url(#mask-36)"></path>
                            <path d="M21.9550781,109.563477 C10.189491,109.25701 10.4910889,93.1599151 5.421875,81.4326172" id="Path-4" stroke="#F75E00" mask="url(#mask-36)"></path>
                            <path d="M25.3330078,95.0488281 C14.2032798,98.3388348 14.9794178,75.3845713 11.0214844,66.2226562" id="Path-5" stroke="#F75E00" mask="url(#mask-36)"></path>
                            <path d="M30.6435547,85.0576172 C15.1385566,85.7333155 17.758851,69.9111976 15.421875,56.5087891" id="Path-6" stroke="#F75E00" mask="url(#mask-36)"></path>
                            <path d="M37.5332031,76.1796875 C18.4447382,78.8116651 23.1491991,64.5109213 20.9550781,47.3525391" id="Path-7" stroke="#F75E00" mask="url(#mask-36)"></path>
                            <path d="M39.9775391,70.0869141 C23.3164969,68.8300248 25.9758485,51.657651 26.8886719,37.7441406" id="Path-8" stroke="#F75E00" mask="url(#mask-36)"></path>
                            <path d="M44.3769531,65.2128906 C32.8492005,51.1125338 39.0562907,60.9800749 32.9101562,32.1738281" id="Path-9" stroke="#F75E00" mask="url(#mask-36)"></path>
                            <path d="M48.8212891,58.7021484 C42.729382,48.540624 43.4503163,36.3913834 39.5546875,25.1757812" id="Path-10" stroke="#F75E00" mask="url(#mask-36)"></path>
                            <path d="M55.8886719,51.7050781 C53.3997396,40.9238281 50.9108073,30.1425781 48.421875,19.3613281" id="Path-11" stroke="#F75E00" mask="url(#mask-36)"></path>
                            <path d="M63.3554688,42.4785156 C61.2215857,17.3957406 65.382184,26.5814756 56.9101562,12.9208984" id="Path-12" stroke="#F75E00" mask="url(#mask-36)"></path>
                            <path d="M70.4882812,37.4658203 C72.1928843,27.3082038 71.3318193,17.8931394 63.421875,10.1357422" id="Path-13" stroke="#F75E00" mask="url(#mask-36)"></path>
                            <path d="M77.2216797,31.9648437 C79.4522355,15.134914 80.1197202,23.8375781 73.8886719,5.99316406" id="Path-14" stroke="#F75E00" mask="url(#mask-36)"></path>
                            <path d="M84.7324219,26.9511719 C86.7599639,19.2039185 90.2307342,10.8191258 82.6435547,4.4609375" id="Path-15" stroke="#F75E00" mask="url(#mask-36)"></path>
                            <path d="M90.7548828,2.68554688 C98.0858769,12.0116962 94.8583432,5.63461304 94.1777344,23.8525391" id="Path-16" stroke="#F75E00" mask="url(#mask-36)"></path>
                            <path d="M99.0664062,1.74511719 C103.769097,9.87368006 105.845079,14.5562302 101.444336,23.4355469" id="Path-17" stroke="#F75E00" mask="url(#mask-36)"></path>
                            <path d="M107.732422,0.735351562 C111.262398,16.6779845 111.645129,9.87319194 109.533203,21.1025391" id="Path-18" stroke="#F75E00" mask="url(#mask-36)"></path>
                            <path d="M116.488281,19.8144531 C122.083832,11.4736453 121.947136,5.2460499 112.554688,-0.657226562" id="Path-19" stroke="#F75E00" mask="url(#mask-36)"></path>
                            <path d="M122.866211,20.2324219 C130.642262,13.7314433 130.35619,8.07502342 122.510742,-0.0302734375" id="Path-20" stroke="#F75E00" mask="url(#mask-36)"></path>
                            <path d="M131.132812,19.953125 C140.133256,15.5949399 138.473911,6.33271987 130.376953,-0.099609375" id="Path-21" stroke="#F75E00" mask="url(#mask-36)"></path>
                            <path d="M138.488281,20.9980469 C147.117305,14.9135521 143.320744,19.6349128 139.643555,2.859375" id="Path-22" stroke="#F75E00" mask="url(#mask-36)"></path>
                            <path d="M143.732422,21.1376953 C147.414996,19.2007416 146.564905,20.6630942 147.177734,17.4121094" id="Path-23" stroke="#F75E00" mask="url(#mask-36)"></path>
                        </g>
                    </g>
                    <g id="Flipper-R" transform="translate(4.000000, 149.000000)">
                        <mask id="mask-38" fill="white">
                            <use xlink:href="#path-37"></use>
                        </mask>
                        <use id="Mask" fill="#FFFFFF" xlink:href="#path-37"></use>
                        <path d="M-13.0004,9.0928 C-13.2144,9.5738 34.7286,45.6758 75.9996,44.4578 C131.5436,42.8208 150.7236,12.4208 176.6756,28.4168 C193.8496,39.0008 192.9966,64.3048 182.6946,74.4698 C37.9426,217.2958 -12.4894,7.9438 -13.0004,9.0928" id="Fill-789" fill="#E4E4E4" mask="url(#mask-38)"></path>
                    </g>
                    <g id="Sled" transform="translate(133.000000, 117.000000)">
                        <mask id="mask-40" fill="white">
                            <use xlink:href="#path-39"></use>
                        </mask>
                        <use id="Mask" fill="#F37921" xlink:href="#path-39"></use>
                        <g id="Shadow" mask="url(#mask-40)">
                            <g transform="translate(14.000000, 10.000000)">
                                <mask id="mask-42" fill="white">
                                    <use xlink:href="#path-41"></use>
                                </mask>
                                <use id="Mask" stroke="none" fill="#E7681A" fill-rule="evenodd" xlink:href="#path-41"></use>
                                <path d="M164,80 C212,37 193,7 217,12 C245.376089,17.9116852 208.2721,111.549 175.0411,145.439 C123.6451,197.855 -6.55603856,182.351021 -0.3759,155.107 C6,127 116,123 164,80 Z" id="Shadow" stroke="none" fill="#B34500" fill-rule="evenodd" mask="url(#mask-42)"></path>
                            </g>
                        </g>
                        <path d="M51.2858,102.1348 C49.9188,100.5728 68.9068,75.7298 100.3178,56.8338 C140.7668,32.5018 182.9228,29.4018 183.3888,31.1568 C183.7068,32.3598 164.4468,35.6358 135.9188,48.3698 C82.6178,72.1608 52.9118,103.9888 51.2858,102.1348" id="Sled-Highlight" fill="#FFFFFF" mask="url(#mask-40)"></path>
                    </g>
                    <g id="Hand-L" transform="translate(322.000000, 108.625000)">
                        <mask id="mask-44" fill="white">
                            <use xlink:href="#path-43"></use>
                        </mask>
                        <use id="Clip-808" fill="#FFFFFF" xlink:href="#path-43"></use>
                        <path d="M43,10.375 C33,6.375 50,27.375 7,32.375 C-11.6883451,34.5480634 1.92091449,37.786864 5.5105,39.8254 C10,42.375 29,40.8254 38,27.375 C42.6509426,20.424218 44.3176092,14.7575513 43,10.375 Z" id="Fill-807" fill="#F6F6F6" mask="url(#mask-44)"></path>
                    </g>
                </g>
                <path d="M898.2263,588.1245 C761.9213,664.6815 940.7413,584.8045 940.7413,584.8045 C940.7413,584.8045 869.1023,649.5595 1010.2133,554.6035 C1040.4873,534.2325 1075.9083,504.9475 1036.7203,529.2725 C886.9143,622.2615 1035.4453,511.0525 898.2263,588.1245 Z" id="Snow-Dash" fill="#FFFFFF" filter="url(#filter-45)"></path>
                <g id="Ice-Cubes">
                    <g id="Ice-Cube-tbd" transform="translate(826.000000, 624.625000)">
                        <g id="Group-627" transform="translate(28.000000, 0.000000)">
                            <mask id="mask-47" fill="white">
                                <use xlink:href="#path-46"></use>
                            </mask>
                            <g id="Clip-626"></g>
                            <polygon id="Fill-625" fill="#99DCFF" mask="url(#mask-47)" points="126.5729 110.1406 7.0939 117.4276 0.2999 6.0206 119.7789 -1.2664"></polygon>
                        </g>
                        <g id="Group-636" transform="translate(0.000000, 6.000000)">
                            <g id="Group-633">
                                <mask id="mask-49" fill="white">
                                    <use xlink:href="#path-48"></use>
                                </mask>
                                <g id="Clip-632"></g>
                                <polygon id="Fill-631" fill="#F3FDFF" mask="url(#mask-49)" points="7.193 145.541 35.093 111.428 28.299 0.02 0.398 34.134"></polygon>
                            </g>
                            <path d="M9.5934,25.4707 L26.2714,6.6267 L33.4794,111.5257 C33.4794,111.5257 26.5964,25.2437 22.0674,17.4167 C19.7114,13.3467 9.5934,25.4707 9.5934,25.4707" id="Fill-634" fill="#C7E7F8"></path>
                        </g>
                        <g id="Group-641" transform="translate(0.000000, 32.000000)">
                            <mask id="mask-51" fill="white">
                                <use xlink:href="#path-50"></use>
                            </mask>
                            <g id="Clip-640"></g>
                            <polygon id="Fill-639" fill="#C7E7F8" mask="url(#mask-51)" points="126.6725 112.2539 7.1935 119.5409 0.3985 8.1339 119.8785 0.8479"></polygon>
                        </g>
                        <g id="Group-644" transform="translate(2.000000, 0.000000)">
                            <mask id="mask-53" fill="white">
                                <use xlink:href="#path-52"></use>
                            </mask>
                            <g id="Clip-643"></g>
                            <polygon id="Fill-642" fill="#99DCFF" mask="url(#mask-53)" points="117.8785 32.8477 -1.6015 40.1337 26.2995 6.0207 145.7785 -1.2663"></polygon>
                        </g>
                        <g id="Group-651" transform="translate(119.000000, 0.000000)">
                            <g id="Group-647">
                                <mask id="mask-55" fill="white">
                                    <use xlink:href="#path-54"></use>
                                </mask>
                                <g id="Clip-646"></g>
                                <polygon id="Fill-645" fill="#C7E7F8" mask="url(#mask-55)" points="7.6725 144.2539 35.5725 110.1409 28.7785 -1.2671 0.8785 32.8479"></polygon>
                            </g>
                            <g id="Group-650" transform="translate(3.000000, 9.000000)">
                                <mask id="mask-57" fill="white">
                                    <use xlink:href="#path-56"></use>
                                </mask>
                                <g id="Clip-649"></g>
                                <path d="M0.5465,27.7363 C0.3995,25.3143 16.2845,-4.0717 22.4315,1.2823 C28.7865,6.8163 5.8625,16.8053 4.7305,29.9123 C2.8305,51.9053 11.8005,92.6833 3.5995,77.7883 C1.9905,74.8673 1.1885,38.2613 0.5465,27.7363" id="Fill-648" fill="#FFFFFF" mask="url(#mask-57)"></path>
                            </g>
                        </g>
                        <path d="M63.9459,9.3623 C69.3599,-0.3777 86.6409,14.6023 108.5209,9.7523 C119.5849,7.2993 143.1479,-0.9087 138.3299,5.8623 C118.2899,34.0223 87.9769,14.2663 77.9319,17.8343 C65.0659,22.4043 59.6749,17.0463 63.9459,9.3623" id="Fill-652" fill="#FFFFFF"></path>
                        <path d="M8.067,45.9131 C10.924,41.5761 40.894,41.5171 64.47,41.0881 C81.597,40.7761 98.082,34.1771 99.991,38.9221 C107.671,58.0001 36.37,38.4031 19.437,49.6761 C-8.422,68.2231 27.394,104.6681 10.613,105.9161 C7.665,106.1361 1.95,55.1981 8.067,45.9131" id="Fill-654" fill="#FFFFFF"></path>
                    </g>
                    <g id="Ice-Cube-tbd" transform="translate(615.000000, 599.000000)">
                        <g id="Group-697" transform="translate(0.000000, 0.625000)">
                            <g id="Group-666" transform="translate(11.000000, 0.000000)">
                                <mask id="mask-59" fill="white">
                                    <use xlink:href="#path-58"></use>
                                </mask>
                                <g id="Clip-665"></g>
                                <polygon id="Fill-664" fill="#99DCFF" mask="url(#mask-59)" points="0.5094 55.9639 51.9484 128.3169 140.5114 65.3529 89.0724 -7.0001"></polygon>
                            </g>
                            <g id="Group-669" transform="translate(0.000000, 55.000000)">
                                <mask id="mask-61" fill="white">
                                    <use xlink:href="#path-60"></use>
                                </mask>
                                <g id="Clip-668"></g>
                                <polygon id="Fill-667" fill="#99DCFF" mask="url(#mask-61)" points="-1.3002 37.3018 50.1388 109.6558 62.9488 73.3168 11.5098 0.9638"></polygon>
                            </g>
                            <g id="Group-676" transform="translate(50.000000, 65.000000)">
                                <g id="Group-672">
                                    <mask id="mask-63" fill="white">
                                        <use xlink:href="#path-62"></use>
                                    </mask>
                                    <g id="Clip-671"></g>
                                    <polygon id="Fill-670" fill="#F3FDFF" mask="url(#mask-63)" points="0.1393 99.6553 12.9493 63.3163 101.5113 0.3523 88.7013 36.6913"></polygon>
                                </g>
                                <g id="Group-675" transform="translate(13.000000, 5.000000)">
                                    <mask id="mask-65" fill="white">
                                        <use xlink:href="#path-64"></use>
                                    </mask>
                                    <g id="Clip-674"></g>
                                    <path d="M77.9479,21.2627 L84.4199,0.4697 L0.6439,59.2937 C0.6439,59.2937 70.0079,11.4517 78.1629,9.3337 C82.4039,8.2327 77.9479,21.2627 77.9479,21.2627" id="Fill-673" fill="#C7E7F8" mask="url(#mask-65)"></path>
                                </g>
                            </g>
                            <path d="M59.3932,130.1084 C59.8212,123.9174 27.6042,81.3194 27.6042,81.3194 C27.6042,81.3194 51.9962,116.1594 53.4562,129.9134 C54.2042,136.9404 55.5402,150.5104 55.5402,150.5104 C55.5402,150.5104 58.8882,137.3974 59.3932,130.1084" id="Fill-677" fill="#00264D"></path>
                            <g id="Group-681" transform="translate(0.000000, 29.000000)">
                                <mask id="mask-67" fill="white">
                                    <use xlink:href="#path-66"></use>
                                </mask>
                                <g id="Clip-680"></g>
                                <polygon id="Fill-679" fill="#C7E7F8" mask="url(#mask-67)" points="-1.3002 63.3018 50.1388 135.6558 138.7008 72.6918 87.2618 0.3388"></polygon>
                            </g>
                            <g id="Group-684" transform="translate(87.000000, 0.000000)">
                                <mask id="mask-69" fill="white">
                                    <use xlink:href="#path-68"></use>
                                </mask>
                                <g id="Clip-683"></g>
                                <polygon id="Fill-682" fill="#99DCFF" mask="url(#mask-69)" points="0.2614 29.3389 51.7004 101.6919 64.5114 65.3529 13.0724 -7.0001"></polygon>
                            </g>
                            <g id="Group-690">
                                <g id="Group-687">
                                    <mask id="mask-71" fill="white">
                                        <use xlink:href="#path-70"></use>
                                    </mask>
                                    <g id="Clip-686"></g>
                                    <polygon id="Fill-685" fill="#C7E7F8" mask="url(#mask-71)" points="-1.3002 92.3018 11.5098 55.9638 100.0718 -7.0002 87.2618 29.3388"></polygon>
                                </g>
                                <path d="M83.0104,30.1533 C84.9354,28.7843 99.8584,2.1183 92.8244,1.8323 C85.5544,1.5363 88.8444,20.5713 79.3474,29.0773 C63.4094,43.3513 27.9004,62.7103 43.2214,58.4413 C46.2264,57.6033 74.6424,36.1023 83.0104,30.1533" id="Fill-688" fill="#FFFFFF"></path>
                            </g>
                            <path d="M131.9401,47.0752 C136.8161,38.1512 117.0961,37.3042 110.3691,21.9462 C106.9661,14.1802 102.0071,-4.1508 99.1221,2.6522 C87.1201,30.9472 116.7151,36.3442 118.7771,44.1992 C121.4181,54.2622 128.0931,54.1142 131.9401,47.0752" id="Fill-691" fill="#FFFFFF"></path>
                            <path d="M130.6158,100.7949 C132.5728,96.5669 118.3158,79.4809 107.3928,65.8089 C99.4578,55.8759 96.6458,42.5379 92.0998,44.2979 C73.8238,51.3729 122.8598,80.1869 122.3078,96.5819 C121.3998,123.5599 76.3948,125.0429 83.4478,135.3399 C84.6868,137.1489 126.4248,109.8459 130.6158,100.7949" id="Fill-693" fill="#FFFFFF"></path>
                        </g>
                    </g>
                    <g id="Ice-Cube-tbd" transform="translate(405.000000, 599.000000)">
                        <g id="Group-697" transform="translate(0.000000, 0.625000)">
                            <g id="Group-666" transform="translate(11.000000, 0.000000)">
                                <mask id="mask-73" fill="white">
                                    <use xlink:href="#path-72"></use>
                                </mask>
                                <g id="Clip-665"></g>
                                <polygon id="Fill-664" fill="#99DCFF" mask="url(#mask-73)" points="0.5094 55.9639 51.9484 128.3169 140.5114 65.3529 89.0724 -7.0001"></polygon>
                            </g>
                            <g id="Group-669" transform="translate(0.000000, 55.000000)">
                                <mask id="mask-75" fill="white">
                                    <use xlink:href="#path-74"></use>
                                </mask>
                                <g id="Clip-668"></g>
                                <polygon id="Fill-667" fill="#99DCFF" mask="url(#mask-75)" points="-1.3002 37.3018 50.1388 109.6558 62.9488 73.3168 11.5098 0.9638"></polygon>
                            </g>
                            <g id="Group-676" transform="translate(50.000000, 65.000000)">
                                <g id="Group-672">
                                    <mask id="mask-77" fill="white">
                                        <use xlink:href="#path-76"></use>
                                    </mask>
                                    <g id="Clip-671"></g>
                                    <polygon id="Fill-670" fill="#F3FDFF" mask="url(#mask-77)" points="0.1393 99.6553 12.9493 63.3163 101.5113 0.3523 88.7013 36.6913"></polygon>
                                </g>
                                <g id="Group-675" transform="translate(13.000000, 5.000000)">
                                    <mask id="mask-79" fill="white">
                                        <use xlink:href="#path-78"></use>
                                    </mask>
                                    <g id="Clip-674"></g>
                                    <path d="M77.9479,21.2627 L84.4199,0.4697 L0.6439,59.2937 C0.6439,59.2937 70.0079,11.4517 78.1629,9.3337 C82.4039,8.2327 77.9479,21.2627 77.9479,21.2627" id="Fill-673" fill="#C7E7F8" mask="url(#mask-79)"></path>
                                </g>
                            </g>
                            <path d="M59.3932,130.1084 C59.8212,123.9174 27.6042,81.3194 27.6042,81.3194 C27.6042,81.3194 51.9962,116.1594 53.4562,129.9134 C54.2042,136.9404 55.5402,150.5104 55.5402,150.5104 C55.5402,150.5104 58.8882,137.3974 59.3932,130.1084" id="Fill-677" fill="#00264D"></path>
                            <g id="Group-681" transform="translate(0.000000, 29.000000)">
                                <mask id="mask-81" fill="white">
                                    <use xlink:href="#path-80"></use>
                                </mask>
                                <g id="Clip-680"></g>
                                <polygon id="Fill-679" fill="#C7E7F8" mask="url(#mask-81)" points="-1.3002 63.3018 50.1388 135.6558 138.7008 72.6918 87.2618 0.3388"></polygon>
                            </g>
                            <g id="Group-684" transform="translate(87.000000, 0.000000)">
                                <mask id="mask-83" fill="white">
                                    <use xlink:href="#path-82"></use>
                                </mask>
                                <g id="Clip-683"></g>
                                <polygon id="Fill-682" fill="#99DCFF" mask="url(#mask-83)" points="0.2614 29.3389 51.7004 101.6919 64.5114 65.3529 13.0724 -7.0001"></polygon>
                            </g>
                            <g id="Group-690">
                                <g id="Group-687">
                                    <mask id="mask-85" fill="white">
                                        <use xlink:href="#path-84"></use>
                                    </mask>
                                    <g id="Clip-686"></g>
                                    <polygon id="Fill-685" fill="#C7E7F8" mask="url(#mask-85)" points="-1.3002 92.3018 11.5098 55.9638 100.0718 -7.0002 87.2618 29.3388"></polygon>
                                </g>
                                <path d="M83.0104,30.1533 C84.9354,28.7843 99.8584,2.1183 92.8244,1.8323 C85.5544,1.5363 88.8444,20.5713 79.3474,29.0773 C63.4094,43.3513 27.9004,62.7103 43.2214,58.4413 C46.2264,57.6033 74.6424,36.1023 83.0104,30.1533" id="Fill-688" fill="#FFFFFF"></path>
                            </g>
                            <path d="M131.9401,47.0752 C136.8161,38.1512 117.0961,37.3042 110.3691,21.9462 C106.9661,14.1802 102.0071,-4.1508 99.1221,2.6522 C87.1201,30.9472 116.7151,36.3442 118.7771,44.1992 C121.4181,54.2622 128.0931,54.1142 131.9401,47.0752" id="Fill-691" fill="#FFFFFF"></path>
                            <path d="M130.6158,100.7949 C132.5728,96.5669 118.3158,79.4809 107.3928,65.8089 C99.4578,55.8759 96.6458,42.5379 92.0998,44.2979 C73.8238,51.3729 122.8598,80.1869 122.3078,96.5819 C121.3998,123.5599 76.3948,125.0429 83.4478,135.3399 C84.6868,137.1489 126.4248,109.8459 130.6158,100.7949" id="Fill-693" fill="#FFFFFF"></path>
                        </g>
                    </g>
                    <g id="Ice-cube-TBD" transform="translate(985.000000, 534.625000)">
                        <g id="Group-821" transform="translate(39.000000, 0.000000)">
                            <mask id="mask-87" fill="white">
                                <use xlink:href="#path-86"></use>
                            </mask>
                            <g id="Clip-820"></g>
                            <polygon id="Fill-819" fill="#99DCFF" mask="url(#mask-87)" points="148.7164 162.3408 0.9814 136.4628 25.1114 -1.2902 172.8454 24.5868"></polygon>
                        </g>
                        <g id="Group-824" transform="translate(0.000000, 136.000000)">
                            <mask id="mask-89" fill="white">
                                <use xlink:href="#path-88"></use>
                            </mask>
                            <g id="Clip-823"></g>
                            <polygon id="Fill-822" fill="#99DCFF" mask="url(#mask-89)" points="143.7887 59.7998 -3.9463 33.9218 39.9807 0.4628 187.7167 26.3408"></polygon>
                        </g>
                        <g id="Group-830" transform="translate(0.000000, 1.000000)">
                            <g id="Group-827">
                                <mask id="mask-91" fill="white">
                                    <use xlink:href="#path-90"></use>
                                </mask>
                                <g id="Clip-826"></g>
                                <polygon id="Fill-825" fill="#F3FDFF" mask="url(#mask-91)" points="-3.9467 168.9219 39.9813 135.4629 64.1113 -2.2901 20.1833 31.1689"></polygon>
                            </g>
                            <path d="M33.9098,23.2842 L59.7178,5.1712 L37.9848,135.1132 C37.9848,135.1132 54.6978,27.9552 51.4548,17.0982 C49.7678,11.4522 33.9098,23.2842 33.9098,23.2842" id="Fill-828" fill="#C7E7F8"></path>
                        </g>
                        <g id="Group-833" transform="translate(12.000000, 141.000000)">
                            <mask id="mask-93" fill="white">
                                <use xlink:href="#path-92"></use>
                            </mask>
                            <g id="Clip-832"></g>
                            <path d="M28.1051,0.6289 C36.9651,-2.9641 125.4571,14.5949 125.4571,14.5949 C125.4571,14.5949 54.6151,2.5889 33.0451,7.6669 C22.0251,10.2619 0.8261,15.3989 0.8261,15.3989 C0.8261,15.3989 17.6761,4.8569 28.1051,0.6289" id="Fill-831" fill="#00264D" mask="url(#mask-93)"></path>
                        </g>
                        <g id="Group-836" transform="translate(0.000000, 32.000000)">
                            <mask id="mask-95" fill="white">
                                <use xlink:href="#path-94"></use>
                            </mask>
                            <g id="Clip-835"></g>
                            <polygon id="Fill-834" fill="#C7E7F8" mask="url(#mask-95)" points="143.7887 163.7998 -3.9463 137.9218 20.1837 0.1688 167.9177 26.0458"></polygon>
                        </g>
                        <g id="Group-839" transform="translate(20.000000, 0.000000)">
                            <mask id="mask-97" fill="white">
                                <use xlink:href="#path-96"></use>
                            </mask>
                            <g id="Clip-838"></g>
                            <polygon id="Fill-837" fill="#99DCFF" mask="url(#mask-97)" points="147.9176 58.0459 0.1836 32.1689 44.1106 -1.2901 191.8456 24.5869"></polygon>
                        </g>
                        <g id="Group-846" transform="translate(143.000000, 24.000000)">
                            <g id="Group-842">
                                <mask id="mask-99" fill="white">
                                    <use xlink:href="#path-98"></use>
                                </mask>
                                <g id="Clip-841"></g>
                                <polygon id="Fill-840" fill="#C7E7F8" mask="url(#mask-99)" points="0.7887 171.7998 44.7167 138.3408 68.8457 0.5868 24.9177 34.0458"></polygon>
                            </g>
                            <g id="Group-845" transform="translate(16.000000, 12.000000)">
                                <mask id="mask-101" fill="white">
                                    <use xlink:href="#path-100"></use>
                                </mask>
                                <g id="Clip-844"></g>
                                <path d="M11.0387,27.5615 C11.5627,24.5675 39.4727,-6.6245 45.4067,1.6875 C51.5427,10.2815 20.6977,15.7875 15.5047,31.4305 C6.7907,57.6825 5.8587,109.9905 0.1977,89.4515 C-0.9123,85.4225 8.7587,40.5775 11.0387,27.5615" id="Fill-843" fill="#FFFFFF" mask="url(#mask-101)"></path>
                            </g>
                        </g>
                        <path d="M106.5836,13.1533 C116.0156,2.8563 132.7186,26.1403 160.7956,26.5953 C174.9916,26.8253 206.0986,23.6763 198.2566,30.5263 C165.6406,59.0163 134.4436,26.1203 121.1636,27.5473 C104.1536,29.3733 99.1436,21.2743 106.5836,13.1533" id="Fill-847" fill="#FFFFFF"></path>
                        <path d="M27.8483,41.4424 C32.5913,36.9884 69.1343,45.6344 97.9933,51.9704 C118.9563,56.5734 140.9663,53.3254 141.9133,59.6644 C145.7223,85.1504 64.5263,40.5234 40.6113,49.3364 C1.2613,63.8354 34.3093,118.6714 13.4943,115.3114 C9.8373,114.7214 17.6913,50.9794 27.8483,41.4424" id="Fill-849" fill="#FFFFFF"></path>
                    </g>
                    <g id="ice-cube-TBD" transform="translate(918.000000, 0.625000)">
                        <polygon id="Fill-854" fill-opacity="0.8" fill="#99DCFF" points="159.441 205.4375 56.214 96.6265 157.672 0.3755 260.899 109.1855"></polygon>
                        <polygon id="Fill-857" fill-opacity="0.8" fill="#99DCFF" points="104.2272 206.1338 0.9992 97.3238 56.2142 96.6268 159.4412 205.4378"></polygon>
                        <polygon id="Fill-860" fill="#F3FDFF" points="0.9996 97.3242 56.2146 96.6272 157.6726 0.3752 102.4576 1.0722"></polygon>
                        <path d="M118.1793,2.9199 L149.6993,3.7489 L54.8203,95.1559 C54.8203,95.1559 132.0913,19.0569 135.9553,8.4049 C137.9663,2.8659 118.1793,2.9199 118.1793,2.9199" id="Fill-863" fill="#C7E7F8"></path>
                        <path d="M53.236,100.8496 C62.492,103.2446 123.097,170.0726 123.097,170.0726 C123.097,170.0726 73.358,118.2196 53.009,109.4466 C42.613,104.9626 22.528,96.4566 22.528,96.4566 C22.528,96.4566 42.341,98.0316 53.236,100.8496" id="Fill-866" fill="#00264D"></path>
                        <polygon id="Fill-868" fill="#C7E7F8" points="104.2272 206.1338 0.9992 97.3238 102.4572 1.0718 205.6842 109.8818"></polygon>
                        <polygon id="Fill-871" fill="#99DCFF" points="205.6842 109.8818 102.4572 1.0718 157.6722 0.3748 260.8992 109.1858"></polygon>
                        <polygon id="Fill-874" fill="#C7E7F8" points="104.2272 206.1338 159.4412 205.4378 260.8992 109.1858 205.6842 109.8818"></polygon>
                        <path d="M204.1012,115.5752 C206.3062,113.4822 247.3062,105.0622 247.1192,115.2732 C246.9252,125.8312 218.8742,111.8742 205.3822,121.3432 C182.7432,137.2342 150.8272,178.6872 158.5182,158.8182 C160.0272,154.9222 194.5152,124.6692 204.1012,115.5752" id="Fill-877" fill="#FFFFFF"></path>
                        <path d="M183.1764,37.2822 C196.8864,34.6332 196.4264,63.2852 218.7034,80.3802 C229.9684,89.0232 256.8254,105.0292 246.4474,105.8572 C203.2774,109.3032 197.8234,64.2972 186.3094,57.5292 C171.5604,48.8602 172.3624,39.3712 183.1764,37.2822" id="Fill-881" fill="#FFFFFF"></path>
                        <path d="M103.0885,13.0869 C109.5515,12.3369 133.7465,41.0549 153.1475,63.3379 C167.2405,79.5249 186.8535,90.0309 183.8365,95.6869 C171.7095,118.4239 133.0915,34.2039 108.6345,27.0299 C68.3945,15.2289 62.2605,78.9599 47.5455,63.8579 C44.9615,61.2059 89.2475,14.6929 103.0885,13.0869" id="Fill-884" fill="#FFFFFF"></path>
                        <path d="M104.7877,202.6787 C82.3357,180.2577 31.4977,130.4077 29.9197,121.2707 C29.3907,118.2057 29.4567,115.8007 37.1587,122.6737 C45.9307,130.5007 54.4117,137.3257 59.5797,146.3077 C76.1887,175.1697 87.6617,170.3757 99.7327,187.3867 C103.2407,192.3297 106.2167,204.1067 104.7877,202.6787" id="Fill-886" fill="#FFFFFF"></path>
                    </g>
                    <g id="Ice-cube-Tbd" transform="translate(0.000000, 287.625000)">
                        <g id="Group-891" transform="translate(44.000000, 0.000000)">
                            <mask id="mask-103" fill="white">
                                <use xlink:href="#path-102"></use>
                            </mask>
                            <g id="Clip-890"></g>
                            <polygon id="Fill-889" fill="#99DCFF" mask="url(#mask-103)" points="103.4415 205.4375 0.2145 96.6265 101.6725 0.3755 204.8995 109.1855"></polygon>
                        </g>
                        <g id="Group-905" transform="translate(0.000000, 1.000000)">
                            <mask id="mask-105" fill="white">
                                <use xlink:href="#path-104"></use>
                            </mask>
                            <g id="Clip-904"></g>
                            <polygon id="Fill-903" fill="#C7E7F8" mask="url(#mask-105)" points="92.2267 205.1338 -11.0003 96.3238 90.4577 0.0718 193.6847 108.8818"></polygon>
                        </g>
                        <g id="Group-908" transform="translate(90.000000, 0.000000)">
                            <mask id="mask-107" fill="white">
                                <use xlink:href="#path-106"></use>
                            </mask>
                            <g id="Clip-907"></g>
                            <polygon id="Fill-906" fill="#99DCFF" mask="url(#mask-107)" points="103.6847 109.8818 0.4577 1.0718 55.6727 0.3748 158.8997 109.1858"></polygon>
                        </g>
                        <g id="Group-915" transform="translate(92.000000, 109.000000)">
                            <g id="Group-911">
                                <mask id="mask-109" fill="white">
                                    <use xlink:href="#path-108"></use>
                                </mask>
                                <g id="Clip-910"></g>
                                <polygon id="Fill-909" fill="#C7E7F8" mask="url(#mask-109)" points="0.2267 97.1338 55.4417 96.4378 156.8997 0.1858 101.6847 0.8818"></polygon>
                            </g>
                            <g id="Group-914" transform="translate(53.000000, 1.000000)">
                                <mask id="mask-111" fill="white">
                                    <use xlink:href="#path-110"></use>
                                </mask>
                                <g id="Clip-913"></g>
                                <path d="M47.1012,5.5752 C49.3072,3.4822 90.3062,-4.9378 90.1192,5.2732 C89.9262,15.8312 61.8742,1.8742 48.3832,11.3432 C25.7422,27.2342 -6.1728,68.6872 1.5182,48.8182 C3.0272,44.9222 37.5152,14.6692 47.1012,5.5752" id="Fill-912" fill="#FFFFFF" mask="url(#mask-111)"></path>
                            </g>
                        </g>
                        <g id="Group-918" transform="translate(163.000000, 37.000000)">
                            <mask id="mask-113" fill="white">
                                <use xlink:href="#path-112"></use>
                            </mask>
                            <g id="Clip-917"></g>
                            <path d="M8.1764,0.2822 C21.8854,-2.3668 21.4264,26.2852 43.7044,43.3802 C54.9684,52.0232 81.8254,68.0292 71.4474,68.8572 C28.2774,72.3032 22.8244,27.2972 11.3094,20.5292 C-3.4396,11.8602 -2.6376,2.3712 8.1764,0.2822" id="Fill-916" fill="#FFFFFF" mask="url(#mask-113)"></path>
                        </g>
                    </g>
                </g>
            </g>
        </g>
    </g>
</svg>