<?xml version="1.0" encoding="UTF-8"?>
<svg width="634px" height="195px" viewBox="0 0 634 195" version="1.1" xmlns="http://www.w3.org/2000/svg" xmlns:xlink="http://www.w3.org/1999/xlink">
    <!-- Generator: Sketch 47 (45396) - http://www.bohemiancoding.com/sketch -->
    <title>Ice Cubes 2</title>
    <desc>Created with Sketch.</desc>
    <defs>
        <path d="M0.4057,37.363107 C1.12611222,35.1046611 2.52792718,33.1004392 4.447,31.644 L41.992,3.149 C44.09,1.557 46.554,0.787 48.999,0.787 C52.504,0.787 55.968,2.369 58.25,5.377 L84.459,39.909 C86.225,42.237 87.049,45.144 86.765,48.052 L85.418,61.861 C85.104,65.081 83.46,68.023 80.885,69.978 L64.9039058,82.1063 L16.3494588,82.1063 L0.872,61.713 C0.708435132,61.4975979 0.552958968,61.277209 0.4057,61.0522963 L0.4057,37.363107 L0.4057,37.363107 Z" id="path-1"></path>
        <path d="M0.0954,57.6185912 C3.22739382,58.230101 6.59657459,57.5543134 9.338,55.473 L46.885,26.978 C49.46,25.023 51.104,22.081 51.418,18.861 L52.765,5.052 C52.9150397,3.51567761 52.7558252,1.97963432 52.3118342,0.5291 L0.0954,0.5291 L0.0954,57.6185912 L0.0954,57.6185912 Z" id="path-3"></path>
        <path d="M3.63814642,0.7113 C2.68844728,2.22175041 2.08941987,3.94693792 1.912,5.76 L0.565,19.57 C0.282,22.477 1.105,25.386 2.872,27.713 L29.08,62.245 C31.3719233,65.2657951 34.8559819,66.8483976 38.3763,66.8348115 L38.3763,0.7113 L3.63814642,0.7113 L3.63814642,0.7113 Z" id="path-5"></path>
        <path d="M17.7458406,44.6283 L1.82068781,23.6449078 C1.36038291,23.0293817 0.965601943,22.3739195 0.6393,21.6891741 L0.6393,4.57026322 L0.93089572,1.58118338 C0.98235914,1.12775919 1.06021762,0.680130106 1.16335067,0.2403 L4.08460429,0.2403 L36.6893,43.1998939 L36.6893,44.6283 L17.7458406,44.6283 L17.7458406,44.6283 Z" id="path-7"></path>
        <path d="M22.4280335,0.5151 L6.447,12.644 C3.871,14.599 2.227,17.541 1.912,20.76 L0.565,34.57 C0.282,37.477 1.105,40.386 2.872,42.713 L29.08,77.245 C32.954,82.351 40.234,83.348 45.338,79.473 L82.885,50.978 C84.8037693,49.5212257 86.2055978,47.5164165 86.9254,45.2569202 L86.9254,21.5704125 C86.7781049,21.3452794 86.6225943,21.1246554 86.459,20.909 L70.9804953,0.5151 L22.4280335,0.5151 L22.4280335,0.5151 Z" id="path-9"></path>
        <path d="M1.01856109,58.0926 C0.574648132,56.6419047 0.41550033,55.1056733 0.565,53.57 L1.912,39.76 C2.227,36.541 3.871,33.599 6.447,31.644 L43.992,3.149 C46.09,1.557 48.554,0.787 50.999,0.787 C51.7501941,0.787 52.499505,0.859666591 53.2357,1.00346404 L53.2357,58.0926 L1.01856109,58.0926 L1.01856109,58.0926 Z" id="path-11"></path>
        <path d="M35.6926452,66.9111 C36.6422342,65.4004269 37.2411245,63.6748187 37.418,61.861 L38.765,48.052 C39.049,45.144 38.225,42.237 36.459,39.909 L10.25,5.377 C7.968,2.369 4.504,0.787 0.999,0.787 C0.984134007,0.787 0.969267311,0.787028466 0.9544,0.787085409 L0.9544,66.9111 L35.6926452,66.9111 L35.6926452,66.9111 Z" id="path-13"></path>
        <path d="M4.62036059,0.232395806 C5.99608587,0.991681928 7.23903504,2.04440464 8.25,3.377 L19.6624489,18.4136166 L19.6624489,40.4458408 L16.3573921,40.4458408 L0.317582166,19.3113734 L0.317582166,3.54789006 L0.641006978,0.232395806 L4.62036059,0.232395806 L4.62036059,0.232395806 Z" id="path-15"></path>
        <path d="M0.3306,12.0764271 L9.88,2.585 C11.157,1.317 12.866,0.576 14.664,0.512 L23.208,0.205 C23.294,0.202 23.38,0.2 23.466,0.2 C25.365,0.201 27.191,0.958 28.535,2.309 L49.005,22.907 C51.789,25.706 51.775,30.234 48.974,33.016 L30.031,51.844 C28.9840797,52.8835476 27.6486009,53.568101 26.2114712,53.8174 L14.0562588,53.8174 C13.0577765,53.4629067 12.1394849,52.8872861 11.376,52.12 L0.3306,41.0060721 L0.3306,12.0764271 L0.3306,12.0764271 Z" id="path-17"></path>
        <path d="M0.848475968,0.9339 C0.695199769,2.93472957 1.380602,4.98828408 2.906,6.523 L23.376,27.12 C24.782,28.533 26.713,29.296 28.703,29.225 L37.247,28.918 C38.2243638,28.882667 39.175134,28.6478828 40.0447,28.2370978 L40.0447,0.9339 L0.848475968,0.9339 L0.848475968,0.9339 Z" id="path-19"></path>
        <path d="M0.827530678,26.4531 C0.835186956,24.6263243 1.53867518,22.8023388 2.937,21.413 L21.88,2.585 C23.157,1.317 24.866,0.576 26.664,0.512 L35.208,0.205 C35.294,0.202 35.38,0.2 35.466,0.2 C36.4605394,0.200523717 37.4350564,0.408403073 38.3308,0.800367547 L38.3308,26.4531 L0.827530678,26.4531 L0.827530678,26.4531 Z" id="path-21"></path>
        <path d="M25.7071524,0.6109 C24.266877,0.858748687 22.9279698,1.54441601 21.88,2.585 L2.937,21.413 C0.136,24.196 0.123,28.723 2.906,31.523 L23.376,52.12 C24.782,53.533 26.713,54.296 28.703,54.225 L37.247,53.918 C39.045,53.853 40.753,53.113 42.031,51.844 L51.5797,42.3532687 L51.5797,13.4227631 L40.535,2.309 C39.7711781,1.54119986 38.8516762,0.965254272 37.8515705,0.6109 L25.7071524,0.6109 L25.7071524,0.6109 Z" id="path-23"></path>
        <path d="M0.8667,1.19202193 C1.73615705,0.781476187 2.68693762,0.546778639 3.664,0.512 L12.208,0.205 C12.294,0.202 12.38,0.2 12.466,0.2 C14.365,0.201 16.191,0.958 17.535,2.309 L38.005,22.907 C39.5310733,24.4412957 40.2164099,26.4951175 40.0628214,28.4961 L0.8667,28.4961 L0.8667,1.19202193 L0.8667,1.19202193 Z" id="path-25"></path>
        <path d="M0.5797,26.6287398 C1.55313406,27.0550059 2.61931883,27.263664 3.703,27.225 L12.247,26.918 C14.045,26.853 15.753,26.113 17.031,24.844 L35.974,6.016 C37.3721972,4.62728714 38.0759339,2.80350851 38.0838416,0.9769 L0.5797,0.9769 L0.5797,26.6287398 L0.5797,26.6287398 Z" id="path-27"></path>
        <path d="M23.4708197,2.84686913 C23.1212602,3.63471846 22.6222748,4.37212265 21.974,5.016 L12.4098239,14.5221135 L11.9350031,14.9940123 L0.238420168,14.9940123 L0.238420168,12.7621063 L12.58,0.496 L14.4335588,0.42949485 L23.4708197,0.42949485 L23.4708197,2.84686913 L23.4708197,2.84686913 Z" id="path-29"></path>
        <path d="M4.73350654,0.552519181 L18.005,13.907 C18.9178119,14.8247301 19.529828,15.9283344 19.8414359,17.0953256 L19.8414359,18.2736599 L0.175886527,18.2736599 L0.175886527,0.552519181 L4.73350654,0.552519181 L4.73350654,0.552519181 Z" id="path-31"></path>
        <path d="M0.1073,42.0706058 L6.039,45.566 C7.589,46.481 9.427,46.776 11.186,46.394 L37.287,40.726 C41.145,39.888 43.593,36.081 42.755,32.223 L36.594,3.846 C36.3475497,2.71104665 35.8315746,1.66604803 35.1042201,0.7913 L0.1073,0.7913 L0.1073,42.0706058 L0.1073,42.0706058 Z" id="path-33"></path>
        <path d="M3.53514622,0.2207 C1.57640665,1.87380709 0.57416819,4.52835188 1.156,7.207 L7.318,35.584 C7.741,37.531 8.957,39.214 10.674,40.226 L18.039,44.566 C18.789115,45.0088098 19.6066804,45.3064138 20.4501,45.4523516 L20.4501,0.2207 L3.53514622,0.2207 L3.53514622,0.2207 Z" id="path-35"></path>
        <path d="M1.23497661,15.5707 L1.156,15.207 C0.318,11.349 2.766,7.541 6.625,6.703 L32.725,1.035 C33.227,0.926 33.735,0.872 34.242,0.872 C35.51,0.872 36.765,1.209 37.873,1.862 L45.237,6.203 C46.3898347,6.88248093 47.3172645,7.86445537 47.9303,9.02603336 L47.9303,15.5707 L1.23497661,15.5707 L1.23497661,15.5707 Z" id="path-37"></path>
        <path d="M8.80792809,46.6387 C8.08045047,45.7638646 7.56453744,44.7187716 7.318,43.584 L1.156,15.207 C0.318,11.349 2.766,7.541 6.625,6.703 L32.725,1.035 C33.227,0.926 33.735,0.872 34.242,0.872 C35.51,0.872 36.765,1.209 37.873,1.862 L43.8041,5.35832063 L43.8041,46.6387 L8.80792809,46.6387 L8.80792809,46.6387 Z" id="path-39"></path>
        <path d="M17.3751494,46.2094 C19.3342388,44.5566496 20.3369347,41.9021218 19.755,39.223 L13.594,10.846 C13.171,8.898 11.954,7.215 10.237,6.203 L2.873,1.862 C2.1224963,1.41969051 1.30454856,1.12236273 0.4608,0.976542846 L0.4608,46.2094 L17.3751494,46.2094 L17.3751494,46.2094 Z" id="path-41"></path>
        <path d="M0.9811,7.40261148 C1.59383625,8.56417379 2.52094757,9.54639077 3.674,10.226 L11.039,14.566 C12.589,15.481 14.427,15.776 16.186,15.394 L42.287,9.726 C46.145,8.888 48.593,5.081 47.755,1.223 L47.676123,0.8597 L0.9811,0.8597 L0.9811,7.40261148 L0.9811,7.40261148 Z" id="path-43"></path>
        <path d="M5.11116654,0.2168 L0.7213,7.70069806 L0.7213,19.3528013 C1.07164195,19.9031071 1.54931481,20.3676114 2.121,20.703 L15.481,28.539 C17.457,29.698 19.996,29.035 21.155,27.06 L29.674,12.535 C30.259,11.538 30.401,10.343 30.066,9.236 L28.63,4.491 C28.328,3.492 27.66,2.644 26.759,2.116 L23.5207852,0.2168 L5.11116654,0.2168 L5.11116654,0.2168 Z" id="path-45"></path>
        <path d="M3.12064868,26.8817 C2.72511247,26.4366799 2.42642612,25.9077687 2.25,25.328 L0.815,20.583 C0.48,19.477 0.621,18.282 1.206,17.284 L9.726,2.759 C10.497,1.443 11.883,0.71 13.306,0.71 C13.6228959,0.71 13.9415697,0.746347298 14.2557,0.820710044 L14.2557,26.8817 L3.12064868,26.8817 L3.12064868,26.8817 Z" id="path-47"></path>
        <path d="M21.2094225,17.9716 C21.2842353,17.3956679 21.2379607,16.8042403 21.066,16.236 L19.63,11.491 C19.328,10.492 18.66,9.644 17.759,9.116 L4.4,1.281 C3.741,0.894 3.019,0.71 2.306,0.71 C1.79852233,0.71 1.29575038,0.803224067 0.8239,0.982868778 L0.8239,17.9716 L21.2094225,17.9716 L21.2094225,17.9716 Z" id="path-49"></path>
        <path d="M11.0683715,0.9515 L14.7962635,3.13809892 C15.670927,3.66300083 16.3210642,4.49161333 16.6223398,5.46594659 L17.7623,9.2333016 L17.7623,10.9495 L16.8477587,10.9495 L0.4103,1.30809138 L0.4103,0.9515 L11.0683715,0.9515 L11.0683715,0.9515 Z" id="path-51"></path>
        <path d="M7.35989638,29.6027 L4.121,27.703 C3.221,27.175 2.554,26.327 2.25,25.328 L0.815,20.583 C0.48,19.477 0.621,18.282 1.206,17.284 L9.726,2.759 C10.497,1.443 11.883,0.71 13.306,0.71 C14.019,0.71 14.741,0.894 15.4,1.281 L28.759,9.116 C29.3312459,9.451345 29.809504,9.91577203 30.1597,10.4659838 L30.1597,22.1169002 L25.7692333,29.6027 L7.35989638,29.6027 L7.35989638,29.6027 Z" id="path-53"></path>
        <path d="M0.6256,26.9989726 C2.3509363,27.4070977 4.21085577,26.6688739 5.155,25.06 L13.674,10.535 C14.259,9.538 14.401,8.343 14.066,7.236 L12.63,2.491 C12.4547608,1.91131812 12.1562879,1.38247857 11.7605664,0.9375 L0.6256,0.9375 L0.6256,26.9989726 L0.6256,26.9989726 Z" id="path-55"></path>
        <path d="M0.6711157,0.8477 C0.596476983,1.42378766 0.642994571,2.01512536 0.815,2.583 L2.25,7.328 C2.554,8.327 3.221,9.175 4.121,9.703 L17.481,17.539 C18.6102436,18.2013448 19.9233567,18.2686447 21.0577,17.8360854 L21.0577,0.8477 L0.6711157,0.8477 L0.6711157,0.8477 Z" id="path-57"></path>
        <path d="M10.2993278,11.9074523 C10.019581,11.8164071 9.74525602,11.6939963 9.481,11.539 L0.693503574,6.38489656 L0.693503574,0.760919652 L2.37082703,0.760919652 L10.626,5.603 L12.0066949,10.1659382 L12.0066949,11.9074523 L10.2993278,11.9074523 L10.2993278,11.9074523 Z" id="path-59"></path>
    </defs>
    <g id="Title" stroke="none" stroke-width="1" fill="none" fill-rule="evenodd">
        <g id="Zearn-Board" transform="translate(-326.000000, -42.000000)">
            <g id="Ice-Cubes-2" transform="translate(325.000000, 41.000000)">
                <g id="Ice-cube-tbd" transform="translate(560.000000, 94.625000)">
                    <g id="Group-160" transform="translate(2.000000, 0.000000)">
                        <mask id="mask-2" fill="white">
                            <use xlink:href="#path-1"></use>
                        </mask>
                        <g id="Clip-159"></g>
                        <polygon id="Fill-158" fill="#99DCFF" mask="url(#mask-2)" points="87.2067 43.5293 36.3767 82.1063 0.4057 34.7113 51.2357 -3.8667"></polygon>
                    </g>
                    <g id="Group-163" transform="translate(36.000000, 43.000000)">
                        <mask id="mask-4" fill="white">
                            <use xlink:href="#path-3"></use>
                        </mask>
                        <g id="Clip-162"></g>
                        <polygon id="Fill-161" fill="#99DCFF" mask="url(#mask-4)" points="50.9254 23.9111 0.0954 62.4881 2.3764 39.1061 53.2064 0.5291"></polygon>
                    </g>
                    <g id="Group-170" transform="translate(0.000000, 34.000000)">
                        <g id="Group-166">
                            <mask id="mask-6" fill="white">
                                <use xlink:href="#path-5"></use>
                            </mask>
                            <g id="Clip-165"></g>
                            <polygon id="Fill-164" fill="#F3FDFF" mask="url(#mask-6)" points="36.0953 71.4883 38.3763 48.1063 2.4063 0.7113 0.1243 24.0923"></polygon>
                        </g>
                        <g id="Group-169" transform="translate(1.000000, 4.000000)">
                            <mask id="mask-8" fill="white">
                                <use xlink:href="#path-7"></use>
                            </mask>
                            <g id="Clip-168"></g>
                            <path d="M0.6393,13.5303 L2.4603,0.2403 L36.6893,44.6283 C36.6893,44.6283 8.1123,8.4003 3.7883,6.2693 C1.5393,5.1603 0.6393,13.5303 0.6393,13.5303" id="Fill-167" fill="#C7E7F8" mask="url(#mask-8)"></path>
                        </g>
                    </g>
                    <path d="M40.0231,83.5635 C41.4671,79.7605 72.5551,57.2495 72.5551,57.2495 C72.5551,57.2495 48.3071,75.8645 43.6481,84.0595 C41.2671,88.2475 36.7331,96.3445 36.7331,96.3445 C36.7331,96.3445 38.3231,88.0395 40.0231,83.5635" id="Fill-171" fill="#00264D"></path>
                    <g id="Group-175" transform="translate(0.000000, 19.000000)">
                        <mask id="mask-10" fill="white">
                            <use xlink:href="#path-9"></use>
                        </mask>
                        <g id="Clip-174"></g>
                        <polygon id="Fill-173" fill="#C7E7F8" mask="url(#mask-10)" points="86.9254 47.9111 36.0954 86.4881 0.1244 39.0931 50.9544 0.5151"></polygon>
                    </g>
                    <g id="Group-178">
                        <mask id="mask-12" fill="white">
                            <use xlink:href="#path-11"></use>
                        </mask>
                        <g id="Clip-177"></g>
                        <polygon id="Fill-176" fill="#99DCFF" mask="url(#mask-12)" points="50.9547 19.5156 0.1247 58.0926 2.4057 34.7106 53.2357 -3.8674"></polygon>
                    </g>
                    <g id="Group-185" transform="translate(50.000000, 0.000000)">
                        <g id="Group-181">
                            <mask id="mask-14" fill="white">
                                <use xlink:href="#path-13"></use>
                            </mask>
                            <g id="Clip-180"></g>
                            <polygon id="Fill-179" fill="#C7E7F8" mask="url(#mask-14)" points="36.9254 66.9111 39.2064 43.5291 3.2364 -3.8669 0.9544 19.5151"></polygon>
                        </g>
                        <g id="Group-184" transform="translate(2.000000, 2.000000)">
                            <mask id="mask-16" fill="white">
                                <use xlink:href="#path-15"></use>
                            </mask>
                            <g id="Clip-183"></g>
                            <path d="M1.2877,18.4512 C0.5067,17.4202 -1.1423,-0.3108 3.1677,0.2452 C7.6227,0.8192 0.4117,12.0302 3.7877,18.1782 C9.4507,28.4932 25.4927,43.9242 17.4487,39.7442 C15.8717,38.9252 4.6857,22.9292 1.2877,18.4512" id="Fill-182" fill="#FFFFFF" mask="url(#mask-16)"></path>
                        </g>
                    </g>
                    <path d="M19.2028,25.6475 C18.7228,19.7255 30.8168,21.2565 39.0858,12.6335 C43.2658,8.2735 51.2878,-2.3375 51.1538,2.0895 C50.5978,20.5065 31.3098,20.7125 27.9108,25.2665 C23.5568,31.0995 19.5818,30.3185 19.2028,25.6475" id="Fill-186" fill="#FFFFFF"></path>
                    <path d="M5.235,58.3867 C5.219,55.6187 18.492,46.7267 28.821,39.5617 C36.324,34.3567 41.681,26.5537 43.932,28.0927 C52.982,34.2817 15.564,46.6837 11.39,56.6927 C4.522,73.1587 31.187,78.7257 24.115,84.2437 C22.872,85.2127 5.268,64.3147 5.235,58.3867" id="Fill-188" fill="#FFFFFF"></path>
                    <path d="M85.4908,66.5127 C74.9618,74.9617 51.5088,94.1347 47.5708,94.3757 C46.2508,94.4567 45.2368,94.3167 48.5028,91.3797 C52.2208,88.0357 55.5038,84.7677 59.5428,83.0007 C72.5228,77.3237 71.0308,72.2477 78.7878,67.9377 C81.0418,66.6837 86.1608,65.9747 85.4908,66.5127" id="Fill-190" fill="#FFFFFF"></path>
                </g>
                <g id="Ice-cube-tbd" transform="translate(346.000000, 110.625000)">
                    <g id="Group-195" transform="translate(12.000000, 0.000000)">
                        <mask id="mask-18" fill="white">
                            <use xlink:href="#path-17"></use>
                        </mask>
                        <g id="Clip-194"></g>
                        <polygon id="Fill-193" fill="#99DCFF" mask="url(#mask-18)" points="28.0446 53.8174 0.3306 25.9334 26.3306 0.0924 54.0446 27.9764"></polygon>
                    </g>
                    <g id="Group-198" transform="translate(0.000000, 25.000000)">
                        <mask id="mask-20" fill="white">
                            <use xlink:href="#path-19"></use>
                        </mask>
                        <g id="Clip-197"></g>
                        <polygon id="Fill-196" fill="#99DCFF" mask="url(#mask-20)" points="25.5797 29.3369 -2.1333 1.4529 12.3307 0.9339 40.0447 28.8169"></polygon>
                    </g>
                    <g id="Group-204">
                        <g id="Group-201">
                            <mask id="mask-22" fill="white">
                                <use xlink:href="#path-21"></use>
                            </mask>
                            <g id="Clip-200"></g>
                            <polygon id="Fill-199" fill="#F3FDFF" mask="url(#mask-22)" points="-2.1332 26.4531 12.3308 25.9331 38.3308 0.0931 23.8668 0.6111"></polygon>
                        </g>
                        <path d="M27.9977,1 L36.2627,1.025 L11.9567,25.557 C11.9567,25.557 31.7417,5.144 32.6887,2.329 C33.1827,0.865 27.9977,1 27.9977,1" id="Fill-202" fill="#C7E7F8"></path>
                    </g>
                    <path d="M11.5758,27.0586 C14.0158,27.6286 30.3048,44.7726 30.3048,44.7726 C30.3048,44.7726 16.9548,31.4876 11.5688,29.3126 C8.8178,28.2016 3.5028,26.0946 3.5028,26.0946 C3.5028,26.0946 8.7038,26.3866 11.5758,27.0586" id="Fill-205" fill="#00264D"></path>
                    <g id="Group-209">
                        <mask id="mask-24" fill="white">
                            <use xlink:href="#path-23"></use>
                        </mask>
                        <g id="Clip-208"></g>
                        <polygon id="Fill-207" fill="#C7E7F8" mask="url(#mask-24)" points="25.5797 54.3369 -2.1333 26.4529 23.8667 0.6109 51.5797 28.4959"></polygon>
                    </g>
                    <g id="Group-212" transform="translate(23.000000, 0.000000)">
                        <mask id="mask-26" fill="white">
                            <use xlink:href="#path-25"></use>
                        </mask>
                        <g id="Clip-211"></g>
                        <polygon id="Fill-210" fill="#99DCFF" mask="url(#mask-26)" points="28.5797 28.4961 0.8667 0.6111 15.3307 0.0931 43.0447 27.9761"></polygon>
                    </g>
                    <g id="Group-219" transform="translate(25.000000, 27.000000)">
                        <g id="Group-215">
                            <mask id="mask-28" fill="white">
                                <use xlink:href="#path-27"></use>
                            </mask>
                            <g id="Clip-214"></g>
                            <polygon id="Fill-213" fill="#C7E7F8" mask="url(#mask-28)" points="0.5797 27.3369 15.0447 26.8169 41.0447 0.9769 26.5797 1.4959"></polygon>
                        </g>
                        <g id="Group-218" transform="translate(14.000000, 1.000000)">
                            <mask id="mask-30" fill="white">
                                <use xlink:href="#path-29"></use>
                            </mask>
                            <g id="Clip-217"></g>
                            <path d="M12.1998,1.9971 C12.7648,1.4351 23.4578,-1.0209 23.4708,1.6561 C23.4848,4.4241 16.0488,0.9371 12.5708,3.5011 C6.7348,7.8041 -1.3752,18.8601 0.5188,13.6071 C0.8898,12.5771 9.7438,4.4381 12.1998,1.9971" id="Fill-216" fill="#FFFFFF" mask="url(#mask-30)"></path>
                        </g>
                    </g>
                    <g id="Group-222" transform="translate(43.000000, 9.000000)">
                        <mask id="mask-32" fill="white">
                            <use xlink:href="#path-31"></use>
                        </mask>
                        <g id="Clip-221"></g>
                        <path d="M2.2389,0.6084 C5.8159,-0.1686 5.8699,7.3414 11.8119,11.6854 C14.8159,13.8814 21.9519,17.9124 19.2369,18.1924 C7.9459,19.3594 6.2429,7.5984 3.1839,5.8944 C-0.7341,3.7124 -0.5811,1.2214 2.2389,0.6084" id="Fill-220" fill="#FFFFFF" mask="url(#mask-32)"></path>
                    </g>
                    <path d="M24.1051,3.7568 C25.7931,3.5208 32.3091,10.8988 37.5291,16.6188 C41.3211,20.7758 46.5241,23.4088 45.7681,24.9088 C42.7291,30.9418 32.0961,9.1078 25.6431,7.3768 C15.0261,4.5288 13.8071,21.2678 9.8601,17.3998 C9.1661,16.7208 20.4881,4.2618 24.1051,3.7568" id="Fill-223" fill="#FFFFFF"></path>
                    <path d="M25.7057,53.4287 C19.6857,47.6897 6.0597,34.9367 5.5907,32.5517 C5.4337,31.7517 5.4357,31.1207 7.4967,32.8747 C9.8427,34.8727 12.1067,36.6107 13.5157,38.9317 C18.0447,46.3937 21.0207,45.0677 24.2877,49.4507 C25.2377,50.7257 26.0897,53.7937 25.7057,53.4287" id="Fill-225" fill="#FFFFFF"></path>
                </g>
                <g id="Ice-cube-tbd" transform="translate(0.000000, 0.625000)">
                    <g id="Group-230" transform="translate(12.000000, 7.000000)">
                        <mask id="mask-34" fill="white">
                            <use xlink:href="#path-33"></use>
                        </mask>
                        <g id="Clip-229"></g>
                        <polygon id="Fill-228" fill="#99DCFF" mask="url(#mask-34)" points="8.4503 46.9883 0.1073 8.5703 35.9293 0.7913 44.2733 39.2093"></polygon>
                    </g>
                    <g id="Group-233" transform="translate(0.000000, 8.000000)">
                        <mask id="mask-36" fill="white">
                            <use xlink:href="#path-35"></use>
                        </mask>
                        <g id="Clip-232"></g>
                        <polygon id="Fill-231" fill="#99DCFF" mask="url(#mask-36)" points="7.9811 38.6387 -0.3619 0.2207 12.1071 7.5707 20.4501 45.9887"></polygon>
                    </g>
                    <g id="Group-239">
                        <g id="Group-236">
                            <mask id="mask-38" fill="white">
                                <use xlink:href="#path-37"></use>
                            </mask>
                            <g id="Clip-235"></g>
                            <polygon id="Fill-234" fill="#F3FDFF" mask="url(#mask-38)" points="-0.3617 8.2207 12.1073 15.5707 47.9303 7.7907 35.4613 0.4417"></polygon>
                        </g>
                        <path d="M38.733,2.9922 L45.684,7.4632 L11.995,15.0512 C11.995,15.0512 39.657,8.5002 41.971,6.6382 C43.175,5.6702 38.733,2.9922 38.733,2.9922" id="Fill-237" fill="#C7E7F8"></path>
                    </g>
                    <path d="M10.8658,16.1113 C12.6148,17.9063 17.1128,41.1223 17.1128,41.1223 C17.1128,41.1223 13.0138,22.7393 9.6468,18.0073 C7.9258,15.5893 4.5808,10.9523 4.5808,10.9523 C4.5808,10.9523 8.8068,13.9993 10.8658,16.1113" id="Fill-240" fill="#00264D"></path>
                    <g id="Group-244">
                        <mask id="mask-40" fill="white">
                            <use xlink:href="#path-39"></use>
                        </mask>
                        <g id="Clip-243"></g>
                        <polygon id="Fill-242" fill="#C7E7F8" mask="url(#mask-40)" points="7.9811 46.6387 -0.3619 8.2207 35.4611 0.4417 43.8041 38.8597"></polygon>
                    </g>
                    <g id="Group-247" transform="translate(35.000000, 0.000000)">
                        <mask id="mask-42" fill="white">
                            <use xlink:href="#path-41"></use>
                        </mask>
                        <g id="Clip-246"></g>
                        <polygon id="Fill-245" fill="#99DCFF" mask="url(#mask-42)" points="8.8038 38.8594 0.4608 0.4414 12.9298 7.7914 21.2728 46.2094"></polygon>
                    </g>
                    <g id="Group-253" transform="translate(7.000000, 38.000000)">
                        <g id="Group-250">
                            <mask id="mask-44" fill="white">
                                <use xlink:href="#path-43"></use>
                            </mask>
                            <g id="Clip-249"></g>
                            <polygon id="Fill-248" fill="#C7E7F8" mask="url(#mask-44)" points="0.9811 8.6387 13.4501 15.9887 49.2731 8.2087 36.8041 0.8597"></polygon>
                        </g>
                        <path d="M35.6749,1.9199 C36.4539,1.7509 46.7869,5.4379 45.3569,7.6999 C43.8789,10.0399 39.4889,3.0989 35.1779,3.3869 C27.9439,3.8709 15.1559,8.8219 19.5809,5.4149 C20.4479,4.7469 32.2909,2.6549 35.6749,1.9199" id="Fill-251" fill="#FFFFFF"></path>
                    </g>
                    <path d="M48.6285,19.5293 C52.0615,20.7993 48.0635,27.1583 50.7325,34.0173 C52.0815,37.4863 55.9245,44.7233 53.4865,43.4993 C43.3425,38.4023 48.2385,27.5743 46.5785,24.4923 C44.4515,20.5453 45.9205,18.5273 48.6285,19.5293" id="Fill-254" fill="#FFFFFF"></path>
                    <path d="M33.9689,3.2197 C35.5189,3.9297 37.0379,13.6557 38.3569,21.2857 C39.3149,26.8297 42.2819,31.8507 40.8369,32.7077 C35.0289,36.1557 37.8229,12.0307 33.3159,7.0987 C25.9019,-1.0163 15.8639,12.4327 14.6189,7.0477 C14.4009,6.1017 30.6489,1.6987 33.9689,3.2197" id="Fill-256" fill="#FFFFFF"></path>
                    <path d="M8.5768,45.9404 C6.5928,37.8634 1.9758,19.7814 2.8648,17.5184 C3.1618,16.7594 3.5038,16.2294 4.2958,18.8174 C5.1978,21.7634 6.1708,24.4464 6.1078,27.1614 C5.9068,35.8874 9.1298,36.3734 9.5228,41.8264 C9.6368,43.4114 8.7028,46.4554 8.5768,45.9404" id="Fill-258" fill="#FFFFFF"></path>
                </g>
                <g id="Ice-cube-tbd" transform="translate(204.000000, 91.625000)">
                    <g id="Group-263" transform="translate(2.000000, 7.000000)">
                        <mask id="mask-46" fill="white">
                            <use xlink:href="#path-45"></use>
                        </mask>
                        <g id="Clip-262"></g>
                        <polygon id="Fill-261" fill="#99DCFF" mask="url(#mask-46)" points="0.7213 19.8818 12.2553 0.2168 30.5913 10.9718 19.0573 30.6368"></polygon>
                    </g>
                    <g id="Group-266">
                        <mask id="mask-48" fill="white">
                            <use xlink:href="#path-47"></use>
                        </mask>
                        <g id="Clip-265"></g>
                        <polygon id="Fill-264" fill="#99DCFF" mask="url(#mask-48)" points="0.2897 18.8477 11.8237 -0.8173 14.2557 7.2167 2.7217 26.8817"></polygon>
                    </g>
                    <g id="Group-273" transform="translate(11.000000, 0.000000)">
                        <g id="Group-269">
                            <mask id="mask-50" fill="white">
                                <use xlink:href="#path-49"></use>
                            </mask>
                            <g id="Clip-268"></g>
                            <polygon id="Fill-267" fill="#F3FDFF" mask="url(#mask-50)" points="0.8239 -0.8174 3.2559 7.2166 21.5919 17.9716 19.1599 9.9376"></polygon>
                        </g>
                        <g id="Group-272" transform="translate(3.000000, 6.000000)">
                            <mask id="mask-52" fill="white">
                                <use xlink:href="#path-51"></use>
                            </mask>
                            <g id="Clip-271"></g>
                            <path d="M16.5533,6.3115 L17.7623,10.9495 L0.4103,0.9515 C0.4103,0.9515 14.7833,9.0235 16.5023,9.1385 C17.3963,9.1985 16.5533,6.3115 16.5533,6.3115" id="Fill-270" fill="#C7E7F8" mask="url(#mask-52)"></path>
                        </g>
                    </g>
                    <path d="M13.5123,6.96 C13.5533,8.412 6.3523,20.082 6.3523,20.082 C6.3523,20.082 11.8253,10.631 12.2473,7.289 C12.4633,5.582 12.8593,2.29 12.8593,2.29 C12.8593,2.29 13.4643,5.25 13.5123,6.96" id="Fill-274" fill="#00264D"></path>
                    <g id="Group-278">
                        <mask id="mask-54" fill="white">
                            <use xlink:href="#path-53"></use>
                        </mask>
                        <g id="Clip-277"></g>
                        <polygon id="Fill-276" fill="#C7E7F8" mask="url(#mask-54)" points="0.2897 18.8477 11.8237 -0.8173 30.1597 9.9377 18.6257 29.6027"></polygon>
                    </g>
                    <g id="Group-281" transform="translate(18.000000, 9.000000)">
                        <mask id="mask-56" fill="white">
                            <use xlink:href="#path-55"></use>
                        </mask>
                        <g id="Clip-280"></g>
                        <polygon id="Fill-279" fill="#99DCFF" mask="url(#mask-56)" points="0.6256 20.6025 12.1596 0.9375 14.5916 8.9715 3.0576 28.6365"></polygon>
                    </g>
                    <g id="Group-288" transform="translate(0.000000, 18.000000)">
                        <g id="Group-284">
                            <mask id="mask-58" fill="white">
                                <use xlink:href="#path-57"></use>
                            </mask>
                            <g id="Clip-283"></g>
                            <polygon id="Fill-282" fill="#C7E7F8" mask="url(#mask-58)" points="0.2897 0.8477 2.7217 8.8817 21.0577 19.6367 18.6257 11.6027"></polygon>
                        </g>
                        <g id="Group-287" transform="translate(8.000000, 6.000000)">
                            <mask id="mask-60" fill="white">
                                <use xlink:href="#path-59"></use>
                            </mask>
                            <g id="Clip-286"></g>
                            <path d="M9.7281,5.6113 C10.1261,5.8453 13.0851,11.4773 11.5861,11.8813 C10.0371,12.2983 10.8911,7.6133 8.9401,6.0423 C5.6641,3.4063 -1.7359,0.4953 1.4901,0.7803 C2.1231,0.8363 7.9961,4.5953 9.7281,5.6113" id="Fill-285" fill="#FFFFFF" mask="url(#mask-60)"></path>
                        </g>
                    </g>
                    <path d="M28.278,23.2529 C29.244,25.1429 25.04,26.2849 23.484,30.2589 C22.697,32.2689 21.493,36.8659 20.933,35.3859 C18.609,29.2269 24.951,26.5309 25.454,24.5649 C26.097,22.0449 27.516,21.7619 28.278,23.2529" id="Fill-289" fill="#FFFFFF"></path>
                    <path d="M28.4323,10.5371 C28.8143,11.4491 25.6413,16.1931 23.2053,19.9671 C21.4373,22.7081 20.7303,26.0161 19.7773,25.8131 C15.9453,25.0021 26.6143,15.8081 26.6293,11.9341 C26.6563,5.5601 17.0903,7.3531 18.6743,4.5681 C18.9533,4.0791 27.6143,8.5831 28.4323,10.5371" id="Fill-291" fill="#FFFFFF"></path>
                    <path d="M0.818,18.7842 C3.144,14.5592 8.279,5.0322 9.547,4.4162 C9.972,4.2102 10.326,4.1182 9.647,5.5332 C8.875,7.1432 8.236,8.6712 7.142,9.8042 C3.629,13.4472 4.812,14.9202 2.838,17.4002 C2.264,18.1222 0.67,19.0532 0.818,18.7842" id="Fill-293" fill="#FFFFFF"></path>
                </g>
            </g>
        </g>
    </g>
</svg>