<?xml version="1.0" encoding="UTF-8"?>
<svg width="169px" height="227px" viewBox="0 0 169 227" version="1.1" xmlns="http://www.w3.org/2000/svg" xmlns:xlink="http://www.w3.org/1999/xlink">
    <!-- Generator: Sketch 47 (45396) - http://www.bohemiancoding.com/sketch -->
    <title>Moose</title>
    <desc>Created with Sketch.</desc>
    <defs>
        <path d="M0.4977,26.1074 C-1.6583,47.7644 18.3087,60.6374 33.5347,63.1024 C43.8657,64.7744 68.1467,55.7364 69.9347,27.9444 C71.1187,9.5344 43.3907,-3.0856 24.4827,1.7954 C21.5827,2.5454 1.9617,11.4014 0.4977,26.1074" id="path-1"></path>
        <path d="M54.3405,19.874 C53.7775,14.607 26.1325,-8.848 10.8225,4.245 C4.9655,9.254 -0.7445,18.671 1.4635,28.697 C5.9505,49.075 23.7545,33.645 30.0155,22.087 C37.1205,8.97 54.7925,24.1 54.3405,19.874" id="path-3"></path>
        <path d="M29.9132,26.127 C27.5182,33.54 15.0162,21.223 3.4142,27.727 C-3.5798,31.647 0.5822,7.886 15.9352,1.876 C28.4142,-3.008 34.0432,13.343 29.9132,26.127 Z" id="path-5"></path>
        <path d="M20.9982,1.6328 C19.2702,-1.2622 8.4772,-1.4952 1.7312,13.8138 C-5.4068,30.0118 17.0692,46.5168 25.3852,37.1728 C30.4532,31.4788 18.9822,27.6618 16.1362,20.7708 C11.4672,9.4648 22.6872,4.4628 20.9982,1.6328" id="path-7"></path>
        <path d="M5.2682,1.165 C7.7002,-1.188 21.1762,6.809 22.0962,21.345 C23.3952,41.882 6.4722,45.344 3.2822,42.546 C-3.2958,36.774 2.3932,32.075 7.5402,23.853 C12.4742,15.973 2.5092,3.834 5.2682,1.165" id="path-9"></path>
        <path d="M37.2916,145.1201 C34.0766,146.9361 0.7596,132.8701 0.5366,111.0641 C0.2706,85.0391 31.2916,80.0131 36.3336,47.7451 C40.0436,24.0091 33.9826,0.6251 33.9826,0.6251 C33.9826,0.6251 50.4556,6.0511 54.4876,11.9311 C56.3556,14.6541 49.9076,42.0391 42.8666,56.8911 C29.6676,84.7291 20.0166,85.2251 16.9986,102.5291 C12.6506,127.4521 40.4366,143.3441 37.2916,145.1201" id="path-11"></path>
        <path d="M6.0582,103.5195 C6.0582,103.5195 22.0582,93.5305 19.9352,64.7635 C14.4782,-9.1975 15.3502,1.4195 15.3502,1.4195 C15.3502,1.4195 12.1272,7.2345 3.3782,10.8305 C-4.0178,13.8715 6.6852,39.9205 14.1742,71.4565 C16.9632,83.2055 6.0582,103.5195 6.0582,103.5195" id="path-13"></path>
        <path d="M14.0167,58.2949 C75.1447,34.0509 42.5637,-0.8841 38.9677,0.5429 C37.1697,1.2559 46.8117,20.3189 41.4177,22.4589 C39.0907,23.3819 31.7767,3.3959 29.9787,4.1079 C28.1807,4.8209 36.6877,20.1739 31.0027,22.4289 C29.2047,23.1419 20.4657,5.3339 18.4777,6.5889 C16.5057,7.8339 25.3207,26.7629 22.7257,27.7919 C20.9277,28.5049 11.2867,9.4409 9.4887,10.1539 C5.8927,11.5799 13.4927,22.0789 16.2477,32.4409 C17.3187,36.4709 16.8907,42.2319 12.7747,48.6969 C7.6817,56.6999 0.4527,54.9709 0.5897,58.0179 C0.6807,60.0509 6.8257,61.1479 14.0167,58.2949" id="path-15"></path>
        <path d="M0.4903,42.8391 C-1.55431223e-15,48 16.6174952,86.3456262 42,80 C82,70 58.9232164,54.4984983 61,34 C63.0767836,13.5015017 48.883038,-0.594157017 30.0133,0.8701 C-6.9734,3.7402 0.9806,37.6782 0.4903,42.8391 Z" id="path-17"></path>
        <path d="M42.4601,53.7813 C-21.5089,38.5353 5.7381,-0.7017 9.5011,0.1943 C11.3821,0.6423 4.5681,20.8903 10.2121,22.2353 C12.6481,22.8153 17.0261,1.9883 18.9081,2.4363 C20.7891,2.8853 14.5671,19.2973 20.5161,20.7153 C22.3981,21.1633 28.4981,2.2883 30.6451,3.2453 C32.7751,4.1953 26.7591,24.1903 29.4751,24.8383 C31.3561,25.2863 38.1701,5.0393 40.0521,5.4873 C43.8151,6.3853 37.7961,17.8633 36.5521,28.5133 C36.0691,32.6543 37.8221,38.1153 42.8211,43.9263 C49.0071,51.1163 60.4381,49.1373 60.7381,52.1733 C60.9391,54.1983 49.9861,55.5753 42.4601,53.7813" id="path-19"></path>
        <path d="M53,10 C52,6 50,0 28,0 C6,0 2,13 1,17 C-7.32747196e-14,21 -1,44 28,41 C57,38 54,14 53,10 Z" id="path-21"></path>
        <path d="M7.1002,19.7412 L7.1002,19.7412 C5.7642,17.9062 -3.5788,9.9282 3.0592,7.1202 C5.6422,6.0272 8.6342,12.9122 20.7732,11.3382 C32.6662,9.7962 33.8182,-1.1338 37.7602,1.1052 C41.7832,3.3892 39.3472,11.4852 33.3212,17.7422 C28.2942,22.9612 14.5912,24.9632 7.1002,19.7412" id="path-23"></path>
        <path d="M1.1549,25.4209 C12.2329,-5.8251 61.2999,-5.8361 84.9759,17.7379 C97.2839,29.9939 88.6429,45.1019 79.5479,50.5889 C67.2469,58.0099 43.7279,61.5609 18.1279,51.7919 C10.4099,48.8469 -3.7351,39.2139 1.1549,25.4209" id="path-25"></path>
        <path d="M0.5123,12.0195 C2.5643,15.0585 7.0653,16.3545 14.1033,13.0945 C22.8773,9.0315 22.3753,7.5445 17.6813,1.3855 C14.1573,-3.2385 -2.3447,7.7885 0.5123,12.0195" id="path-27"></path>
        <path d="M17.3004,15.5059 C15.1154,17.7539 11.1124,18.2469 5.2504,14.7069 C-0.4426,11.2689 -2.3186,7.8819 3.7904,1.3229 C8.1474,-3.3541 21.2134,11.4799 17.3004,15.5059" id="path-29"></path>
        <path d="M6.0485,2.666 C12.6035,-2.337 23.0095,0.279 29.2935,8.511 C35.5765,16.741 35.3565,27.47 28.8025,32.474 C22.2475,37.477 11.8405,34.86 5.5575,26.629 C-0.7255,18.397 -0.5055,7.669 6.0485,2.666" id="path-31"></path>
        <path d="M20.0094,1.3994 C26.7024,3.8624 29.3144,13.5084 25.8424,22.9454 C22.3704,32.3814 14.1294,38.0364 7.4364,35.5734 C0.7434,33.1104 -1.8676,23.4634 1.6034,14.0274 C5.0754,4.5904 13.3164,-1.0626 20.0094,1.3994" id="path-33"></path>
        <path d="M3.89,12.7865 C6.782,15.4275 14.5471529,13.3662696 15.49,10.6285 C16.4328471,7.89073038 10.299,5.4865 7.567,2.1095 C6.267,0.5025 2.87765548,-0.654285019 1.39479953,4.21953406 C-0.0880564102,9.09335313 1.221,10.3485 3.89,12.7865 Z" id="path-35"></path>
        <path d="M1.6564,1.3398 C3.6854,-0.7972 4.6634,1.3228 6.8014,3.3528 C8.9374,5.3818 11.4244,6.5518 9.3944,8.6888 C7.3654,10.8248 3.9884,10.9128 1.8514,8.8838 C-0.2856,6.8548 -0.3726,3.4778 1.6564,1.3398" id="path-37"></path>
        <path d="M6.74459135,0.843073918 C9.09339528,1.65158181 11.8030349,3.37229567 9.2738131,5.05844351 C6.74459135,6.74459135 4.87802569,8.39617315 2.52922175,7.58766526 C0.179574745,6.7783143 0.455006994,4.75535844 1.26351488,2.4065545 C2.07202277,0.0577505634 4.39578741,0.0337229567 6.74459135,0.843073918 Z" id="path-39"></path>
        <path d="M5,2 C5.60978956,5 9.3033,4.3305 8.5233,6.5935 C7.7433,8.8575 5.2763,10.0605 3.0123,9.2815 C0.7483,8.5015 -0.4547,6.0345 0.3253,3.7705 C1.1043,1.5065 4.39021044,-1 5,2 Z" id="path-41"></path>
    </defs>
    <g id="Title" stroke="none" stroke-width="1" fill="none" fill-rule="evenodd">
        <g id="Zearn-Board" transform="translate(-64.000000, -231.000000)">
            <g id="Moose" transform="translate(62.000000, 231.000000)">
                <path d="M62,213.3247 C55.0800252,211.167836 51.9978498,201.6547 53.2267619,199.2677 C54.7216488,196.3687 70.1872688,197.7307 82.7640768,201.7577 C93.6277901,205.2377 94.2531023,208.1167 101.453963,208.9377 C111.175613,210.0467 112.060386,205.0267 124.942251,205.3737 C134.443522,205.6307 142.100169,212.431034 142.196807,213.3247 C144,230 111,224 97.2493897,222.0537 C83.4987794,220.1074 77,218 62,213.3247 Z" id="Snow-Shadow" fill="#99DCFF"></path>
                <g id="Body" transform="translate(34.000000, 120.000000)">
                    <g transform="translate(29.000000, 0.000000)">
                        <mask id="mask-2" fill="white">
                            <use xlink:href="#path-1"></use>
                        </mask>
                        <use id="Mask" fill="#9547CC" xlink:href="#path-1"></use>
                        <path d="M4.8522,9.9238 C-2.1418,54.4148 48.6132,32.3018 62.0532,52.3598 C70.8502,65.4868 -42.8938,88.4418 -24.1208,31.8138 C-19.7668,18.6788 6.6072,-1.2392 4.8522,9.9238" id="Shadow" fill="#7029A5" mask="url(#mask-2)"></path>
                    </g>
                    <g id="Leg-R" transform="translate(0.000000, 35.000000)">
                        <mask id="mask-4" fill="white">
                            <use xlink:href="#path-3"></use>
                        </mask>
                        <use id="Mask" fill="#9547CC" xlink:href="#path-3"></use>
                        <path d="M7.01759987,-7.09394945 C-2.12369044,5.15594916 34.426825,1.32696605 29.4988956,19.1143591 C21.7529181,47.0735149 66.2798956,49.0733591 73.2188956,42.0173591 C96.0298956,18.8193591 16.1588902,-19.3438481 7.01759987,-7.09394945 Z" id="Fill-38" fill="#490080" mask="url(#mask-4)" transform="translate(41.420918, 18.003316) rotate(-5.000000) translate(-41.420918, -18.003316) "></path>
                    </g>
                    <g id="Leg-L" transform="translate(90.000000, 38.000000)">
                        <mask id="mask-6" fill="white">
                            <use xlink:href="#path-5"></use>
                        </mask>
                        <use id="Mask" fill="#9547CC" xlink:href="#path-5"></use>
                        <path d="M14.7638,5.2178 C24.3358,12.7268 7.0448,19.6238 11.8658,27.6558 C21.2118,43.2318 -37.5642,29.3298 -39.1212,22.4978 C-41.7472,10.9788 4.1578,-3.1012 14.7638,5.2178" id="Fill-43" fill="#490080" mask="url(#mask-6)"></path>
                    </g>
                    <g id="Arm-R" transform="translate(18.000000, 9.000000)">
                        <mask id="mask-8" fill="white">
                            <use xlink:href="#path-7"></use>
                        </mask>
                        <use id="Mask" fill="#9547CC" xlink:href="#path-7"></use>
                        <path d="M19.3947,1.6455 C20.8047,3.3335 6.6017,1.9545 5.3257,19.9625 C4.3077,34.3395 38.0617,31.5765 34.4157,45.2245 C33.0477,50.3435 3.2917,43.1055 -2.3423,28.2385 C-8.7273,11.3885 10.9117,-8.5135 19.3947,1.6455" id="Fill-48" fill="#7029A5" mask="url(#mask-8)"></path>
                    </g>
                    <g id="Arm-L" transform="translate(85.000000, 16.000000)">
                        <mask id="mask-10" fill="white">
                            <use xlink:href="#path-9"></use>
                        </mask>
                        <use id="Mask" fill="#9547CC" xlink:href="#path-9"></use>
                        <path d="M4.047,5.4092 C8.794,8.7202 14.018,16.9522 10.935,25.8892 C9.738,29.3602 17.04,33.4382 15.274,36.6262 C9.878,46.3622 -14.306,37.8782 -15.427,32.1092 C-17.117,23.4102 -2.963,0.5202 4.047,5.4092" id="Fill-53" fill="#7029A5" mask="url(#mask-10)"></path>
                    </g>
                </g>
                <g id="Scarf" transform="translate(59.000000, 0.000000)">
                    <g id="Scarf-R">
                        <mask id="mask-12" fill="white">
                            <use xlink:href="#path-11"></use>
                        </mask>
                        <use id="Mask" fill="#D8A9F2" xlink:href="#path-11"></use>
                        <path d="M17.0704,-25.6953 C24.3794,-30.9413 39.4174,11.2297 41.2394,35.8347 C41.9244,45.0657 38.3214,57.8627 23.5634,78.3967 C15.7594,89.2547 -20.4526,110.5827 35.5444,146.6827 C55.6594,159.6507 50.8414,230.3197 -19.2536,160.2277 C-51.9756,127.5067 11.9404,-22.0133 17.0704,-25.6953" id="Fill-58" fill="#F1D9FF" mask="url(#mask-12)"></path>
                    </g>
                    <g id="Scarf-L" transform="translate(48.000000, 43.000000)">
                        <mask id="mask-14" fill="white">
                            <use xlink:href="#path-13"></use>
                        </mask>
                        <use id="Mask" fill="#D8A9F2" xlink:href="#path-13"></use>
                        <path d="M1.3624,3.8018 C31.0654,5.0628 -10.4066,0.6568 12.1754,52.8628 C18.3794,67.2058 23.7814,72.2018 23.7584,83.7718 C23.7224,100.8418 -10.9546,111.7538 -18.9746,109.0698 C-37.1636,102.9818 -60.0666,1.1958 1.3624,3.8018" id="Fill-63" fill="#F1D9FF" mask="url(#mask-14)"></path>
                    </g>
                </g>
                <g id="Head" transform="translate(18.000000, 30.000000)">
                    <g id="Antler-L" transform="translate(102.000000, 0.000000)">
                        <mask id="mask-16" fill="white">
                            <use xlink:href="#path-15"></use>
                        </mask>
                        <use id="Mask" fill="#FAD232" xlink:href="#path-15"></use>
                        <path d="M68.3097,4.0303 C74.2507,6.6293 72.0977,53.9563 42.5357,69.2313 C22.9497,79.3523 -8.1343,69.2173 -9.2413,62.5103 C-10.2133,56.6153 14.3207,62.0643 37.9867,42.0163 C60.1567,23.2353 64.6337,2.4223 68.3097,4.0303" id="Fill-83" fill="#E6B923" mask="url(#mask-16)"></path>
                    </g>
                    <path d="M114.1608,73.3652 C121.3678,82.8732 136.1418,79.0752 137.3208,75.8062 C138.4568,72.6562 124.2098,66.9282 114.6738,64.6712 C109.6628,63.4862 106.9818,61.5792 105.9798,64.1582 C105.0238,66.6202 111.4538,69.7952 114.1608,73.3652" id="Ear-L" fill="#CB9E13"></path>
                    <g transform="translate(49.000000, 46.000000)">
                        <mask id="mask-18" fill="white">
                            <use xlink:href="#path-17"></use>
                        </mask>
                        <use id="Mask" fill="#996E17" xlink:href="#path-17"></use>
                        <path d="M39,1.043 C63.4974,7 9,-6 6,30 C5.05928301,41.2886039 6.8766,69.683 33.3496,90.519 C33.3496,90.519 -92.5904,119.371 -59.3384,27.849 C-50.1974,2.689 30,0 30,0 L39,1.043 Z" id="Fill-78" fill="#734F06" mask="url(#mask-18)"></path>
                        <g id="Eyes" mask="url(#mask-18)" fill="#000000">
                            <g transform="translate(22.000000, 31.000000)">
                                <path d="M4.4781,5.75303182 C4.4851,7.6278259 3.5231,9.15718053 2.3291,9.16817178 C1.1351,9.18073322 0.1611,7.66865056 0.1541,5.7922863 C0.1461,3.9190624 1.1091,2.38813759 2.3031,2.37871651 C3.4971,2.36772525 4.4711,3.87823774 4.4781,5.75303182" id="Eye-R"></path>
                                <path d="M30.1626,7.54586254 C28.9676,7.55842397 27.9946,6.04634131 27.9876,4.16997705 C27.9796,2.29675315 28.9426,0.765828337 30.1366,0.756407261 C31.3306,0.745416006 32.3046,2.25592849 32.3116,4.13072257 C32.3186,6.00551665 31.3566,7.53487128 30.1626,7.54586254 Z" id="Eye-L"></path>
                            </g>
                        </g>
                    </g>
                    <g id="Antler-R" transform="translate(0.000000, 10.000000)">
                        <mask id="mask-20" fill="white">
                            <use xlink:href="#path-19"></use>
                        </mask>
                        <use id="Mask" fill="#FAD232" xlink:href="#path-19"></use>
                        <path d="M11.7614,-5.2471 C12.6964,-5.2291 -2.3906,16.4499 5.0754,29.0669 C21.5284,56.8739 74.7564,46.1059 77.0394,58.6739 C78.2354,65.2609 -0.2916,84.8719 -21.7756,64.5379 C-40.6396,46.6849 10.1644,-5.2771 11.7614,-5.2471" id="Fill-93" fill="#E6B923" mask="url(#mask-20)"></path>
                    </g>
                    <path d="M53.5114,78.2881 C48.2834,89.0121 33.0534,88.1491 31.2634,85.1721 C29.5384,82.3021 42.4044,73.9201 51.3234,69.8581 C56.0094,67.7251 58.2694,65.3341 59.7524,67.6701 C61.1674,69.8991 55.4744,74.2611 53.5114,78.2881" id="Ear-R" fill="#E6B923"></path>
                    <g id="Muzzle" transform="translate(63.000000, 86.000000)">
                        <mask id="mask-22" fill="white">
                            <use xlink:href="#path-21"></use>
                        </mask>
                        <use id="Mask" fill="#E6B923" xlink:href="#path-21"></use>
                        <g id="Mouth" mask="url(#mask-22)">
                            <g transform="translate(10.000000, 17.000000)">
                                <mask id="mask-24" fill="white">
                                    <use xlink:href="#path-23"></use>
                                </mask>
                                <use id="Mask" stroke="none" fill="#4D3300" fill-rule="evenodd" xlink:href="#path-23"></use>
                                <path d="M-3,14 C0.609,7.488 5.487,13.392 12,17 C18.512,20.61 27.61,16.521025 24,23.033025 C20.392,29.546025 11.512,32.61 5,29 C-1.513,25.392 -9.6665,27.4612 -6.0575,20.9482 L-3,14 Z" id="Fill-75" stroke="none" fill="#FEA5BA" fill-rule="evenodd" mask="url(#mask-24)"></path>
                            </g>
                        </g>
                        <g id="Nostrils" mask="url(#mask-22)" fill="#996E17">
                            <g transform="translate(26.000000, 13.000000)">
                                <path d="M3.24497982,0.988186062 C3.78697982,1.52518606 3.79097982,2.40118606 3.25297982,2.94318606 C2.71597982,3.48618606 1.83997982,3.48918606 1.29797982,2.95218606 C0.755979823,2.41418606 0.751979823,1.53918606 1.28897982,0.997186062 C1.82697982,0.454186062 2.70297982,0.450186062 3.24497982,0.988186062" id="Fill-98" transform="translate(2.271416, 1.969997) rotate(10.000000) translate(-2.271416, -1.969997) "></path>
                                <path d="M15.4741576,1.20791702 C16.0161576,1.74491702 16.0201576,2.62091702 15.4831576,3.16291702 C14.9451576,3.70491702 14.0701576,3.70891702 13.5271576,3.17191702 C12.9851576,2.63391702 12.9811576,1.75891702 13.5191576,1.21591702 C14.0571576,0.673917024 14.9321576,0.669917024 15.4741576,1.20791702" id="Fill-100" transform="translate(14.500721, 2.189481) rotate(10.000000) translate(-14.500721, -2.189481) "></path>
                            </g>
                        </g>
                    </g>
                </g>
                <path d="M77.7335,161.25 C78.0925,162.771 83.5365,162.433 86.0735,163.818 C87.5685,164.635 89.1805,159.22 86.1465,158.467 C83.5735,157.829 77.4355,159.987 77.7335,161.25" id="Thumb-R" fill="#CB9E13"></path>
                <path d="M119.88,167.8848 C118.259,168.4068 115.985,170.7728 114.774,169.6638 C112.066,167.1858 117.195,163.7778 120.317,163.6088 C122.96,163.4638 122.631,166.9968 119.88,167.8848" id="Thumb-L" fill="#CB9E13"></path>
                <g id="Sled" transform="translate(49.000000, 161.000000)">
                    <mask id="mask-26" fill="white">
                        <use xlink:href="#path-25"></use>
                    </mask>
                    <use id="Mask" fill="#490080" xlink:href="#path-25"></use>
                    <path d="M86.9628,32 C92,39 83.393,51.936 75,57 C63.649,63.847 43.9068,59.1576 20.2828,50.1416 C13.1608,47.4246 0.1068,38.5356 4.6198,25.8066 C38,-1 70.2576225,8.7854676 86.9628,32 Z" id="Fill-110" fill="#2B004D" mask="url(#mask-26)"></path>
                    <path d="M20.2088273,21.7162786 C37.2140332,10.0808991 61.595603,14.9510169 71.17175,24.5974999 C75.6556287,29.114371 78.2683504,40.0926446 62.3592037,46.4301596 C61.4902127,46.7758726 76.6261777,34.8458418 58.0161647,24.2291858 C43.7357774,16.083583 19.4433104,22.2402892 20.2088273,21.7162786" id="Fill-112" fill="#490080" mask="url(#mask-26)" transform="translate(47.394408, 30.678631) rotate(-8.000000) translate(-47.394408, -30.678631) "></path>
                </g>
                <g id="Hand-R" transform="translate(65.000000, 156.000000)">
                    <mask id="mask-28" fill="white">
                        <use xlink:href="#path-27"></use>
                    </mask>
                    <use id="Mask" fill="#E7BB20" xlink:href="#path-27"></use>
                    <path d="M-2.6742,-7.5342 C-3.1112,-1.8012 1.2338,6.9708 5.8938,11.8608 C10.0888,16.2618 22.2758,5.4678 22.1018,7.4758 C21.9158,9.6148 11.6698,20.5218 5.6888,19.7388 C0.6948,19.0868 -9.3842,15.8228 -10.3622,7.7658 C-11.1872,0.9748 -12.0232,-6.0412 -2.6742,-7.5342" id="Fill-117" fill="#CCA00E" mask="url(#mask-28)"></path>
                </g>
                <g id="Hand-L" transform="translate(117.000000, 163.000000)">
                    <mask id="mask-30" fill="white">
                        <use xlink:href="#path-29"></use>
                    </mask>
                    <use id="Mask" fill="#E7BB20" xlink:href="#path-29"></use>
                    <path d="M0.2438,4.8955 C4.1398,12.8145 9.6858,14.0195 17.7788,15.6555 C19.7858,16.0605 18.2188,24.2435 4.1648,17.2815 C-4.7792,12.8515 0.3558,3.0905 1.2438,4.8955 L0.2438,4.8955 Z" id="Fill-122" fill="#CCA00E" mask="url(#mask-30)"></path>
                </g>
                <g id="Foot-R" transform="translate(27.000000, 165.000000)">
                    <mask id="mask-32" fill="white">
                        <use xlink:href="#path-31"></use>
                    </mask>
                    <use id="Mask" fill="#E6B923" xlink:href="#path-31"></use>
                    <path d="M7.2994,10.6924 C13.7564,5.7634 24.0084,8.3404 30.1984,16.4504 C36.3884,24.5584 36.1724,35.1284 29.7154,40.0574 C23.2574,44.9864 13.0054,42.4084 6.8154,34.2994 C0.6254,26.1904 0.8424,15.6214 7.2994,10.6924" id="Fill-127" fill="#CB9E13" mask="url(#mask-32)"></path>
                </g>
                <g id="Foot-L" transform="translate(142.000000, 153.000000)">
                    <mask id="mask-34" fill="white">
                        <use xlink:href="#path-33"></use>
                    </mask>
                    <use id="Mask" fill="#E6B923" xlink:href="#path-33"></use>
                    <path d="M25.7926,6.2041 C31.0536,8.8091 31.9366,17.7511 27.7646,26.1741 C23.5926,34.5971 15.9456,39.3111 10.6846,36.7061 C5.4226,34.1001 4.5406,25.1591 8.7116,16.7361 C12.8846,8.3131 20.5316,3.5981 25.7926,6.2041" id="Fill-132" fill="#CB9E13" mask="url(#mask-34)"></path>
                </g>
                <path d="M28.9279,197.9092 C25.0199,193.8962 14.4819,194.0132 9.6849,189.8592 C5.8429,186.5322 7.2369,181.8092 11.3659,181.6142 C14.9469,181.4442 8.7349,167.0262 19.2049,169.9232 C24.5469,171.4002 26.8299,181.2262 38.3759,191.3452 C47.1489,199.0332 60.4609,197.3662 57.7939,204.7662 C55.9899,209.7712 34.7819,207.8452 30.4579,203.5592 C28.2649,201.3872 31.3379,200.3842 28.9279,197.9092" id="Snow-Foot" fill="#FFFFFF"></path>
                <path d="M61.0204,214.122 C54.1784,212.125 47.3254,205.184 48.4584,202.798 C49.8344,199.898 64.0814,201.261 75.6664,205.288 C85.6724,208.767 86.2484,211.646 92.8814,212.468 C101.8364,213.576 102.6514,208.557 114.5174,208.904 C123.2694,209.16 129.537292,213.581559 131.3324,212.854 C150,205.288 141.213977,219.62338 139.6974,221.769 C136,227 97.6474,226.674 89.0084,225.584 C73.5014,223.627 86.5794,221.583 61.0204,214.122 Z" id="Snow-Sled" fill="#FFFFFF"></path>
                <g id="Snow-Pellet" transform="translate(139.737749, 196.625000) rotate(-84.000000) translate(-139.737749, -196.625000) translate(131.737749, 189.125000)">
                    <mask id="mask-36" fill="white">
                        <use xlink:href="#path-35"></use>
                    </mask>
                    <use id="Mask" fill="#65C6FD" transform="translate(8.180838, 7.365222) rotate(-2.000000) translate(-8.180838, -7.365222) " xlink:href="#path-35"></use>
                    <path d="M4.4977,1.6182 C3.3937,5.4402 2.0447,10.1122 4.7137,12.5502 C7.6057,15.1912 13.5407,13.6812 16.3137,10.3922 C16.5947,10.0602 18.8887,7.3392 17.9857,5.5392 C16.7617,3.1012 11.1227,5.2502 8.3907,1.8732 C7.0907,0.2662 7.1687,-1.7018 6.3707,-1.7178 C5.4667,-1.7358 4.7407,0.7762 4.4977,1.6182" id="Fill-147" fill="#FFFFFF" mask="url(#mask-36)"></path>
                </g>
                <g id="Snow-Pellet" transform="translate(142.500000, 125.500000) rotate(-30.000000) translate(-142.500000, -125.500000) translate(137.000000, 120.000000)">
                    <mask id="mask-38" fill="white">
                        <use xlink:href="#path-37"></use>
                    </mask>
                    <use id="Mask" fill="#99DCFF" xlink:href="#path-37"></use>
                    <path d="M2.5035,1.4668 C4.5325,-0.6702 5.7255,1.9698 7.8625,3.9988 C9.9995,6.0278 12.2715,6.6778 10.2425,8.8158 C8.2135,10.9518 4.8365,11.0388 2.6985,9.0108 C0.5625,6.9818 0.4745,3.6048 2.5035,1.4668" id="Fill-151" fill="#FFFFFF" mask="url(#mask-38)"></path>
                </g>
                <g id="Snow-Pellet" transform="translate(43.000000, 141.000000)">
                    <mask id="mask-40" fill="white">
                        <use xlink:href="#path-39"></use>
                    </mask>
                    <use id="Mask" fill="#99DCFF" xlink:href="#path-39"></use>
                    <path d="M1.95795487,2.20733613 C2.76646276,-0.141467803 5.32687825,-1.39090335 7.67568218,-0.581552389 C10.0244861,0.226955499 11.2730786,2.78737099 10.4645707,5.137018 C9.65521974,7.48582194 7.09564733,8.73357133 4.74684339,7.92506345 C2.39719638,7.11571248 1.14944698,4.55614007 1.95795487,2.20733613" id="Fill-153" fill="#FFFFFF" mask="url(#mask-40)"></path>
                </g>
                <g id="Snow-Pellet" transform="translate(6.500000, 170.000000) rotate(25.000000) translate(-6.500000, -170.000000) translate(2.000000, 165.000000)">
                    <mask id="mask-42" fill="white">
                        <use xlink:href="#path-41"></use>
                    </mask>
                    <use id="Mask" fill="#C7E7F8" xlink:href="#path-41"></use>
                    <path d="M6.659,0.8462 C8.923,1.6262 10.127,4.0942 9.347,6.3572 C8.567,8.6212 6.1,9.8242 3.837,9.0452 C1.572,8.2652 0.369,5.7982 1.149,3.5342 C1.928,1.2702 4.396,0.0672 6.659,0.8462 Z" id="Fill-155" fill="#F3FDFF" mask="url(#mask-42)"></path>
                </g>
            </g>
        </g>
    </g>
</svg>