<?xml version="1.0" encoding="UTF-8"?>
<svg width="130px" height="130px" viewBox="0 0 130 130" version="1.1" xmlns="http://www.w3.org/2000/svg" xmlns:xlink="http://www.w3.org/1999/xlink">
    <!-- Generator: Sketch 47 (45396) - http://www.bohemiancoding.com/sketch -->
    <title>Moose</title>
    <desc>Created with Sketch.</desc>
    <defs></defs>
    <g id="Symbols" stroke="none" stroke-width="1" fill="none" fill-rule="evenodd">
        <g id="Moose">
            <g id="Page-1" transform="translate(42.000000, 1.000000)">
                <g id="Group-31">
                    <path d="M7.28448276,90.8802563 C7.05362069,97.1971883 6.22767241,108.631635 8.40517241,112.278315 C11.7672414,117.909383 16.7173276,115.375402 17.3706897,113.404528 C18.4913793,110.025887 13.6578448,102.89245 15.1293103,92.0064699 C16.2141379,83.976567 13.7575862,83.3976932 12.887931,82.9967612 C11.7268966,82.4606835 7.39094828,87.9791301 7.28448276,90.8802563" id="Fill-1" fill="#734F06"></path>
                    <path d="M58.6600345,90.8802563 C58.8908966,97.1971883 59.7168448,108.631635 57.5393448,112.278315 C54.1772759,117.909383 49.2271897,115.375402 48.5738276,113.404528 C47.4531379,110.025887 52.2866724,102.89245 50.8152069,92.0064699 C49.7303793,83.976567 52.186931,83.3976932 53.0565862,82.9967612 C54.2176207,82.4606835 58.553569,87.9791301 58.6600345,90.8802563" id="Fill-3" fill="#734F06"></path>
                    <path d="M9.52586207,58.2200621 C4.62844828,63.1787806 3.77,68.7231301 2.80172414,76.2394796 C1.73931034,84.4889942 2.65267241,92.5538097 8.40517241,99.889965 C16.4181034,110.108101 41.9474138,111.08115 54.3534483,101.016179 C67.9989655,89.945499 66.9813793,71.3629748 54.3534483,59.3462757 C43.2406897,48.7711301 18.3927586,49.2418874 9.52586207,58.2200621" id="Fill-5" fill="#4D3300"></path>
                    <path d="M16.25,53.7152078 C9.52586207,53.7152078 -3.92241379,71.7346252 3.92241379,94.2588971 C5.72560345,99.4372272 26.3362069,105.521033 33.0603448,102.142392 C33.0603448,102.142392 27.4568966,88.6278291 30.8189655,78.4919068 C32.2422414,74.201033 30.8189655,68.3559845 30.8189655,68.3559845 C30.8189655,68.3559845 23.4011207,53.7152078 16.25,53.7152078" id="Fill-7" fill="#D8A9F2"></path>
                    <path d="M48.75,54.8414214 C52.112069,54.8414214 70.3837931,71.7346252 62.5389655,94.2588971 C60.7357759,99.4372272 45.0606897,102.142392 37.5431034,102.142392 C37.2024138,102.142392 39.0044828,88.6278291 35.6424138,78.4919068 C34.2191379,74.201033 35.6424138,68.3559845 35.6424138,68.3559845 C35.6424138,68.3559845 41.5988793,54.8414214 48.75,54.8414214" id="Fill-9" fill="#D8A9F2"></path>
                    <path d="M21.5349483,26.2868388 C-10.4271207,20.1422175 2.17055172,0.040431068 4.04994828,0.401945631 C4.9902069,0.583266019 2.07193103,10.7935184 4.89158621,11.3363534 C6.10865517,11.5706058 7.80986207,1.12497476 8.75012069,1.30516893 C9.69037931,1.48648932 6.97943103,9.7788 9.95262069,10.3509165 C10.8917586,10.5311107 13.4872759,1.01798447 14.5709828,1.44481942 C15.6446034,1.86940194 13.1152069,11.9377515 14.4723621,12.199033 C15.4126207,12.3792272 18.3308966,2.16784854 19.2711552,2.34916893 C21.1505517,2.7106835 18.4306379,8.54784854 18.0529655,13.8658291 C17.9061552,15.9346835 18.8946034,18.6083146 21.4934828,21.3833049 C24.7121034,24.8171301 30.3189138,23.5782951 30.5352069,25.0795379 C30.6797759,26.081868 25.2948621,27.009868 21.5349483,26.2868388" id="Fill-11" fill="#996E17"></path>
                    <path d="M21.5349483,26.2868388 C-10.4271207,20.1422175 2.17055172,0.040431068 4.04994828,0.401945631 C4.9902069,0.583266019 2.07193103,10.7935184 4.89158621,11.3363534 C6.10865517,11.5706058 7.80986207,1.12497476 8.75012069,1.30516893 C9.69037931,1.48648932 6.97943103,9.7788 9.95262069,10.3509165 C10.8917586,10.5311107 13.4872759,1.01798447 14.5709828,1.44481942 C15.6446034,1.86940194 13.1152069,11.9377515 14.4723621,12.199033 C15.4126207,12.3792272 18.3308966,2.16784854 19.2711552,2.34916893 C21.1505517,2.7106835 18.4306379,8.54784854 18.0529655,13.8658291 C17.9061552,15.9346835 18.8946034,18.6083146 21.4934828,21.3833049 C24.7121034,24.8171301 30.3189138,23.5782951 30.5352069,25.0795379 C30.6797759,26.081868 25.2948621,27.009868 21.5349483,26.2868388 Z" id="Stroke-13" stroke="#996E17" stroke-width="0.641" stroke-linecap="round"></path>
                    <path d="M41.5355603,26.2868388 C73.4976293,20.1422175 60.8999569,0.040431068 59.0205603,0.401945631 C58.0803017,0.583266019 60.9985776,10.7935184 58.1789224,11.3363534 C56.9618534,11.5706058 55.2606466,1.12497476 54.3203879,1.30516893 C53.3801293,1.48648932 56.0910776,9.7788 53.1178879,10.3509165 C52.17875,10.5311107 49.5832328,1.01798447 48.4995259,1.44481942 C47.4259052,1.86940194 49.9553017,11.9377515 48.5981466,12.199033 C47.6578879,12.3792272 44.7396121,2.16784854 43.7993534,2.34916893 C41.9199569,2.7106835 44.6398707,8.54784854 45.0175431,13.8658291 C45.1643534,15.9346835 44.1759052,18.6083146 41.5770259,21.3833049 C38.3584052,24.8171301 32.7515948,23.5782951 32.5353017,25.0795379 C32.3907328,26.081868 37.7756466,27.009868 41.5355603,26.2868388" id="Fill-15" fill="#996E17"></path>
                    <path d="M41.5355603,26.2868388 C73.4976293,20.1422175 60.8999569,0.040431068 59.0205603,0.401945631 C58.0803017,0.583266019 60.9985776,10.7935184 58.1789224,11.3363534 C56.9618534,11.5706058 55.2606466,1.12497476 54.3203879,1.30516893 C53.3801293,1.48648932 56.0910776,9.7788 53.1178879,10.3509165 C52.17875,10.5311107 49.5832328,1.01798447 48.4995259,1.44481942 C47.4259052,1.86940194 49.9553017,11.9377515 48.5981466,12.199033 C47.6578879,12.3792272 44.7396121,2.16784854 43.7993534,2.34916893 C41.9199569,2.7106835 44.6398707,8.54784854 45.0175431,13.8658291 C45.1643534,15.9346835 44.1759052,18.6083146 41.5770259,21.3833049 C38.3584052,24.8171301 32.7515948,23.5782951 32.5353017,25.0795379 C32.3907328,26.081868 37.7756466,27.009868 41.5355603,26.2868388 Z" id="Stroke-17" stroke="#996E17" stroke-width="0.641" stroke-linecap="round"></path>
                    <path d="M24.0948276,25.559868 C18.6897414,29.5849553 15.2010345,42.701965 15.1293103,46.9579262 C15.0721552,50.3500816 16.0124138,58.8034408 24.0948276,64.9773437 C25.4082759,65.9808 31.9934483,69.5981981 38.6637931,67.2297709 C46.8907759,64.3083728 48.3958621,53.0023146 48.75,50.336567 C50.2651724,38.9550524 43.3774138,27.2154019 40.9051724,25.559868 C37.5431034,23.3074408 28.9743103,21.9255767 24.0948276,25.559868" id="Fill-19" fill="#734F06"></path>
                    <path d="M50.6379138,65.4765942 C49.9374828,63.7478563 50.5314483,61.8715845 51.9648103,61.2848272 C53.3970517,60.6980699 55.1262759,61.6238175 55.8278276,63.3514291 C56.5282586,65.080167 55.9342931,66.9564388 54.500931,67.5431961 C53.067569,68.1299534 51.3383448,67.2042058 50.6379138,65.4765942" id="Fill-21" fill="#4D3300"></path>
                    <path d="M24.0948276,25.559868 C17.3706897,28.9385087 7.28448276,28.9385087 8.40517241,30.0647223 C9.14482759,30.8080233 10.8281034,33.1190136 11.7672414,33.4433631 C14.867069,34.5143922 20.6094828,31.4893825 24.0948276,25.559868" id="Fill-23" fill="#4D3300"></path>
                    <path d="M52.112069,61.5987029 C54.5719828,61.4106252 58.8687069,69.8797515 60.4399138,74.6188583 C60.8859483,75.9635573 62.4840517,83.7051495 59.6173276,85.0239456 C55.8708621,86.7470524 53.0108621,83.7648388 53.8984483,79.0595184 C55.0919828,72.7369553 48.5449138,61.8701204 52.112069,61.5987029" id="Fill-25" fill="#734F06"></path>
                    <path d="M41.9399052,26.6860816 C48.6640431,30.0647223 58.75025,30.0647223 57.6295603,31.1909359 C56.8899052,31.9342369 55.2055086,34.2452272 54.2674914,34.5695767 C51.1676638,35.6406058 45.42525,32.6155961 41.9399052,26.6860816" id="Fill-27" fill="#4D3300"></path>
                    <path d="M25.98375,24.286233 C25.6094397,22.3209903 27.1526293,18.696835 28.4055603,17.6956311 C28.9771121,17.2383883 29.8635776,16.53 31.3417672,16.3036311 C34.4572845,15.8261165 38.3449569,17.7755922 38.7360776,19.4739223 C38.8335776,19.8962524 38.7831466,20.6035146 38.2676293,20.7769515 C37.7072845,20.9661553 36.8028879,20.0753204 36.6504741,20.1913204 C36.4722845,20.326466 38.7786638,21.718466 38.709181,22.4279806 C38.6128017,23.4077864 34.3821983,21.8479806 31.2969397,22.4482524 C28.663319,22.9606796 26.21125,25.4822718 25.98375,24.286233" id="Fill-29" fill="#7029A5"></path>
                </g>
                <path d="M35.4039818,19.5773403 C35.0233419,19.4457754 33.2396454,18.8314901 32.08998,19.0444549 C31.2966112,19.1911641 35.9572375,19.6663123 37.9201889,20.9649246 C38.2532488,21.1854616 37.5683182,20.3231906 35.4039818,19.5773403" id="Fill-32" fill="#2B004D"></path>
                <g id="Group-51" transform="translate(6.000000, 19.000000)">
                    <path d="M20.8557788,5.66156949 C20.1056879,5.15258644 20.1998697,3.87173898 20.5564152,3.11441695 C21.1114152,1.94095932 22.5118091,1.57851864 23.6509606,1.30109492 C26.1434152,0.693671186 30.8143848,0.4554 32.9076879,2.67814576 C33.6241424,3.43994237 34.2811727,4.74763729 33.7463545,5.41882373 C33.5972333,5.60675593 29.1729303,4.92997627 27.3431121,4.57984068 C24.0276879,3.94445085 22.1283545,6.52516271 20.8557788,5.66156949" id="Fill-34" fill="#9547CC"></path>
                    <path d="M25.2272727,19.7948542 C25.2272727,20.4123458 24.7249697,20.9134983 24.1060606,20.9134983 C23.4871515,20.9134983 22.9848485,20.4123458 22.9848485,19.7948542 C22.9848485,19.1773627 23.4871515,18.6762102 24.1060606,18.6762102 C24.7249697,18.6762102 25.2272727,19.1773627 25.2272727,19.7948542" id="Fill-36" fill="#000000"></path>
                    <path d="M36.4393939,19.7948542 C36.4393939,20.4123458 35.9370909,20.9134983 35.3181818,20.9134983 C34.6992727,20.9134983 34.1969697,20.4123458 34.1969697,19.7948542 C34.1969697,19.1773627 34.6992727,18.6762102 35.3181818,18.6762102 C35.9370909,18.6762102 36.4393939,19.1773627 36.4393939,19.7948542" id="Fill-38" fill="#000000"></path>
                    <path d="M22.7806758,40.2362847 C22.2660394,39.8939797 21.9868576,39.4073695 22.158403,39.1500814 C22.3299485,38.8939119 22.8871909,38.9632678 23.4029485,39.3055729 C23.9175848,39.6489966 24.1956455,40.1344881 24.0241,40.3917763 C23.8525545,40.6490644 23.2953121,40.5797085 22.7806758,40.2362847" id="Fill-40" fill="#000000"></path>
                    <path d="M34.6147333,40.2362847 C35.1293697,39.8939797 35.4085515,39.4073695 35.2370061,39.1500814 C35.0643394,38.8939119 34.5082182,38.9632678 33.9924606,39.3055729 C33.4778242,39.6489966 33.1986424,40.1344881 33.3713091,40.3917763 C33.5417333,40.6490644 34.100097,40.5797085 34.6147333,40.2362847" id="Fill-42" fill="#000000"></path>
                    <path d="M11.0051455,46.0195627 C11.705903,44.3024441 11.1116606,42.4387831 9.6776303,41.8559695 C8.24472121,41.2731559 6.51469091,42.1926814 5.81281212,43.9086814 C5.11205455,45.6258 5.70629697,47.489461 7.14032727,48.0722746 C8.57435758,48.6550881 10.3043879,47.7355627 11.0051455,46.0195627" id="Fill-44" fill="#4D3300"></path>
                    <path d="M9.7849303,42.1677356 C7.3238697,41.980922 3.02514242,50.3931254 1.45320303,55.1003797 C1.00696061,56.4360407 -0.591887879,64.1256 2.27617273,65.4355322 C6.02438485,67.1470576 8.88571818,64.1848881 7.99659697,59.5111932 C6.80362727,53.2311254 13.3526273,42.4373288 9.7849303,42.1677356" id="Fill-46" fill="#734F06"></path>
                </g>
            </g>
            <path d="M2.77777778,78.4615625 C2.77777778,78.4615625 71.6795556,79.856875 85.2222222,76.8990625 C121,69.0865625 107,44.0865625 107,44.0865625 C131.888889,48.7740625 135,109.711563 111.666667,114.399063 C92.5535556,118.239688 86.7777778,117.524063 2.77777778,115.961563 L2.77777778,78.4615625 Z" id="Fill-47" fill="#7029A5"></path>
        </g>
    </g>
</svg>