<?xml version="1.0" encoding="UTF-8"?>
<svg width="130px" height="130px" viewBox="0 0 130 130" version="1.1" xmlns="http://www.w3.org/2000/svg" xmlns:xlink="http://www.w3.org/1999/xlink">
    <!-- Generator: Sketch 47 (45396) - http://www.bohemiancoding.com/sketch -->
    <title>Owl</title>
    <desc>Created with Sketch.</desc>
    <defs>
        <path d="M13.5860979,29.0584054 C12.0067604,28.6573405 10.5757297,28.0295701 9.3648,27.13095 C2.256,21.8532 -3.9104,3.04705 4.2128,2.1744 C7.09748883,1.86350958 10.3013255,1.16636704 13.5860979,0.198296674 L13.5860979,29.0584054 L13.5860979,29.0584054 Z" id="path-1"></path>
    </defs>
    <g id="Symbols" stroke="none" stroke-width="1" fill="none" fill-rule="evenodd">
        <g id="Owl">
            <g id="Group" transform="translate(2.000000, 10.000000)">
                <g id="Page-1" transform="translate(26.000000, 53.000000)"></g>
                <g id="Page-1">
                    <g id="Group-25" transform="translate(23.000000, 0.000000)">
                        <path d="M59.0495569,89.2066185 C62.9685765,93.0244185 65.2843608,101.070234 68.2817137,98.3960646 C71.5609882,95.4686185 68.0447137,87.7817415 66.6614392,81.3426031 C65.8156745,77.4051569 55.666498,85.9124646 59.0495569,89.2066185" id="Fill-1" fill="#CFDEE6"></path>
                        <path d="M23.1702353,89.4766769 C22.6311765,94.9306769 25.0879216,99.4026462 21.0759608,99.3000923 C16.6875882,99.1866615 15.3817647,94.2096923 12.2961176,88.3952 C10.4094118,84.84 23.6349412,84.7700769 23.1702353,89.4766769" id="Fill-3" fill="#CFDEE6"></path>
                        <path d="M12.0109431,23.12496 C9.2196098,22.7349446 9.96004118,16.4527446 3.28066863,8.11325231 C1.51168824,5.90368308 0.470747059,5.10966769 0.786747059,4.36071385 C1.8245902,1.90252923 16.7478451,1.55757538 19.4942569,9.36409846 C21.636551,15.4582831 15.3273941,23.58956 12.0109431,23.12496" id="Fill-5" fill="#A1ADB3"></path>
                        <path d="M64.7660588,20.6226462 C67.5573922,20.2326308 66.8169608,13.9504308 73.4947843,5.61093846 C75.2653137,3.40136923 76.3062549,2.60890769 75.9902549,1.8584 C74.9524118,-0.598230769 60.0291569,-0.943184615 57.2827451,6.86333846 C55.140451,12.9559692 61.4496078,21.0872462 64.7660588,20.6226462" id="Fill-7" fill="#A1ADB3"></path>
                        <path d="M74.364249,45.6420554 C76.8581706,1.85933231 55.3779157,0.757655385 36.9523275,0.608486154 C35.8261902,0.599163077 13.5791706,0.746778462 7.02217059,16.8694862 C2.37356275,28.3026862 14.5039353,41.8895169 12.0115627,51.8962862 C8.75397451,64.9687938 9.51609216,83.1705477 16.9994059,90.6756246 C29.0631706,102.778532 47.7722294,103.317717 60.6476804,95.6805631 C70.0409353,90.1084708 80.5990529,73.1622246 74.364249,45.6420554" id="Fill-9" fill="#B8C5CC"></path>
                        <path d="M72.1330412,27.3714662 C72.8006686,40.0928046 59.0159431,41.6046969 41.9612373,42.5059277 C24.9065314,43.4071585 11.0412569,43.3574354 10.3720804,30.6360969 C9.70445294,17.9147585 22.9872961,6.87157385 40.043551,5.97034308 C57.0967078,5.06755846 71.4654137,14.6501277 72.1330412,27.3714662" id="Fill-11" fill="#DFEAF0"></path>
                        <path d="M43.0314549,25.5747538 C43.0314549,32.8576308 37.1467294,38.7622462 29.8864745,38.7622462 C22.6246706,38.7622462 16.7399451,32.8576308 16.7399451,25.5747538 C16.7399451,18.2918769 22.6246706,12.3872615 29.8864745,12.3872615 C37.1467294,12.3872615 43.0314549,18.2918769 43.0314549,25.5747538" id="Fill-13" fill="#FFFFFF"></path>
                        <path d="M65.8946745,24.4275492 C65.8946745,31.7104262 60.009949,37.6150415 52.7481451,37.6150415 C45.4878902,37.6150415 39.6016157,31.7104262 39.6016157,24.4275492 C39.6016157,17.1446723 45.4878902,11.2400569 52.7481451,11.2400569 C60.009949,11.2400569 65.8946745,17.1446723 65.8946745,24.4275492" id="Fill-15" fill="#FFFFFF"></path>
                        <path d="M58.2304353,25.6271185 C58.2304353,24.6342108 59.0328275,23.8277646 60.022651,23.8277646 C61.0124745,23.8277646 61.8148667,24.6342108 61.8148667,25.6271185 C61.8148667,26.6200262 61.0124745,27.4249185 60.022651,27.4249185 C59.0328275,27.4249185 58.2304353,26.6200262 58.2304353,25.6271185" id="Fill-17" fill="#000000"></path>
                        <path d="M33.2887412,26.8774985 C33.2887412,25.8845908 34.0911333,25.0796985 35.0809569,25.0796985 C36.0707804,25.0796985 36.8747216,25.8845908 36.8747216,26.8774985 C36.8747216,27.8704062 36.0707804,28.6752985 35.0809569,28.6752985 C34.0911333,28.6752985 33.2887412,27.8704062 33.2887412,26.8774985" id="Fill-19" fill="#000000"></path>
                        <polygon id="Fill-21" fill="#000000" points="39.7140745 37.5109338 45.4144667 37.5109338 42.5642706 42.5143185"></polygon>
                        <path d="M71.2465373,48.7694815 C65.0117333,55.0237123 48.7996941,62.5303431 37.575498,63.7811892 C29.7111255,64.6575585 35.6825961,83.5103738 42.5633412,88.7996662 C50.3425176,94.7788662 67.5056549,88.7996662 73.7404588,83.7962815 C80.8303216,78.1076508 77.4751451,42.5214662 71.2465373,48.7694815" id="Fill-23" fill="#FF9E59"></path>
                    </g>
                    <g id="Group-28" transform="translate(57.000000, 62.000000)">
                        <mask id="mask-2" fill="white">
                            <use xlink:href="#path-1"></use>
                        </mask>
                        <g id="Clip-27"></g>
                        <path d="M-8.6688,-10.30527 C-20.5072,-15.66207 -18.9728,-17.79332 -20.2624,-17.79332 C-29.7456,-17.79332 -35.536,8.76438 -25.4144,20.89003 C-19.0272,28.54393 -6.6992,33.58918 4.2128,27.13033 C14.7184,20.91173 15.6608,6.28593 10.6528,-1.57102 C8.6128,-4.77022 -0.6096,-6.65967 -8.6688,-10.30527" id="Fill-26" fill="#F75E00" mask="url(#mask-2)"></path>
                    </g>
                    <g id="Group-51" transform="translate(0.000000, 34.000000)">
                        <path d="M99.7476667,13.9704687 C101.427667,19.0345312 93.4865556,24.0345312 90.9805556,25.2923437 C75.5914444,33.0220312 63.4301111,35.3564062 64.6823333,30.3235937 C65.3621111,27.5954687 75.4265556,25.7876562 79.7105556,22.7767187 C92.2327778,13.9704687 98.4954444,10.1970312 99.7476667,13.9704687" id="Fill-29" fill="#F5BFA0"></path>
                        <path d="M99.7370889,27.653125 C99.6064222,33.1625 96.1422,40.134375 92.1195333,40.334375 C87.7157556,40.553125 92.2922,32.9890625 88.7673111,27.390625 C86.6113111,23.96875 99.8506444,22.9 99.7370889,27.653125" id="Fill-31" fill="#CFDEE6"></path>
                        <path d="M47.2918444,17.7446875 C35.7822889,12.3446875 40.0460667,8.386875 36.0202889,10.19625 C27.6047333,13.980625 21.1709556,36.968125 31.0114,49.1915625 C37.2227333,56.9071875 49.2067333,61.993125 59.8156222,55.4821875 C70.0294,49.2134375 70.9456222,34.4696875 66.0767333,26.549375 C64.0934,23.324375 55.1271778,21.4196875 47.2918444,17.7446875" id="Fill-33" fill="#FF9E59"></path>
                        <path d="M101.142222,32.8395312 C101.142222,34.5770312 102.571778,30.3239062 97.3855556,30.3239062 C92.1977778,30.3239062 83.6095556,30.9520312 83.6095556,30.9520312 C83.6095556,30.9520312 89.8706667,22.7770312 96.1333333,22.7770312 C101.321111,22.7770312 101.142222,31.1035937 101.142222,32.8395312" id="Fill-35" fill="#F37921"></path>
                        <path d="M30.9227333,27.653125 C31.0534,33.1625 34.5176222,40.134375 38.5418444,40.334375 C42.9440667,40.553125 38.3676222,32.9890625 41.8925111,27.390625 C44.0485111,23.96875 30.8091778,22.9 30.9227333,27.653125" id="Fill-37" fill="#CFDEE6"></path>
                        <path d="M32.2640889,10.1970312 C30.5840889,15.2595312 38.5252,20.2595312 41.0296444,21.5189062 C56.4203111,29.2470312 68.5816444,31.5814062 67.3294222,26.5501562 C66.6496444,23.8204687 56.5852,22.0142187 52.3012,19.0017187 C39.7789778,10.1970312 33.5163111,6.42359375 32.2640889,10.1970312" id="Fill-39" fill="#F5BFA0"></path>
                        <path d="M67.3294222,34.72625 C67.3294222,35.7684375 66.4878667,36.61375 65.4503111,36.61375 C64.4127556,36.61375 63.5727556,35.7684375 63.5727556,34.72625 C63.5727556,33.6840625 64.4127556,32.83875 65.4503111,32.83875 C66.4878667,32.83875 67.3294222,33.6840625 67.3294222,34.72625" id="Fill-41" fill="#F75E00"></path>
                        <path d="M66.0768889,42.2740625 C66.0768889,43.31625 65.2353333,44.1615625 64.1977778,44.1615625 C63.1602222,44.1615625 62.3202222,43.31625 62.3202222,42.2740625 C62.3202222,41.231875 63.1602222,40.3865625 64.1977778,40.3865625 C65.2353333,40.3865625 66.0768889,41.231875 66.0768889,42.2740625" id="Fill-43" fill="#F75E00"></path>
                        <path d="M43.5350222,30.3240625 C43.5350222,32.06 44.9645778,30.3240625 39.7783556,30.3240625 C34.5905778,30.3240625 28.5068,32.6896875 28.5068,30.9521875 C28.5068,29.21625 30.8339111,22.775625 36.0201333,22.775625 C41.2079111,22.775625 43.5350222,28.5865625 43.5350222,30.3240625" id="Fill-45" fill="#F37921"></path>
                        <path d="M0.777777778,71.9615625 L0.777777778,34.4615625 C0.777777778,34.4615625 69.6795556,35.856875 83.2222222,32.8990625 C119,25.0865625 105,0.0865625 105,0.0865625 C129.888889,4.7740625 133,65.7115625 109.666667,70.3990625 C90.5535556,74.2396875 84.7777778,73.5240625 0.777777778,71.9615625" id="Fill-47" fill="#B34500"></path>
                    </g>
                </g>
            </g>
        </g>
    </g>
</svg>