<?xml version="1.0" encoding="UTF-8"?>
<svg width="960px" height="567px" viewBox="0 0 960 567" version="1.1" xmlns="http://www.w3.org/2000/svg" xmlns:xlink="http://www.w3.org/1999/xlink">
    <!-- Generator: Sketch 47 (45396) - http://www.bohemiancoding.com/sketch -->
    <title>BG: Snow Slope</title>
    <desc>Created with Sketch.</desc>
    <defs>
        <linearGradient x1="9.51968099%" y1="8.48049205%" x2="62.8216829%" y2="91.3318753%" id="linearGradient-1">
            <stop stop-color="#FFFFFF" offset="0%"></stop>
            <stop stop-color="#99F6FF" offset="85.807956%"></stop>
            <stop stop-color="#65C6FD" offset="100%"></stop>
        </linearGradient>
        <path d="M0.072,74.625 L0.072,573.625 L960.072,573.625 L960.072,410.625 C896.238898,417.608792 849.881565,419.400458 821,416 C780.754454,411.261569 723.421121,397.261569 649,374 C596.255149,375.540612 574.139722,393.976494 531,374 C441.411809,332.514846 395.072,205.625 395.072,205.625 C395.072,205.625 379.072,202.625 369.523,194.22 C363.767,188.936 352.402,191.384 341.673,193.832 C332.921,195.829 324.591,197.825 320.072,195.625 C207.072,140.625 194.072,85.625 194.072,85.625 C166.806,85.797 164.072,43.625 164.072,43.625 C150.058,20.502 115.14,25.109 95.493,29.937 C86.183,32.226 76.344,30.27 68.654,24.548 L43.836,6.079 C38.689,2.249 29.446,0.314 20.403,0.314 C12.531,0.314 4.809,1.78 0.072,4.738 L0.072,74.625 Z" id="path-2"></path>
    </defs>
    <g id="Title" stroke="none" stroke-width="1" fill="none" fill-rule="evenodd">
        <g id="Zearn-Board" transform="translate(0.000000, -23.000000)">
            <g id="BG:-Snow-Slope" transform="translate(0.000000, 23.000000)">
                <mask id="mask-3" fill="white">
                    <use xlink:href="#path-2"></use>
                </mask>
                <use id="Mask" fill="url(#linearGradient-1)" xlink:href="#path-2"></use>
                <path d="M121,393 C127.9281,398.375 -33,332 4.0719,40.625 C7.24627891,15.6752495 100.0269,56.545 101.0719,79.625 C106.651233,202.845667 113.293933,307.304 121,393 Z" id="Fill-8" fill="#FFFFFF" mask="url(#mask-3)"></path>
                <path d="M141.0719,427.625 C141.0719,427.625 31.0719,330.625 76.0719,53.625 C79.6989,31.296 131.9209,41.723 131.0719,65.625 C124.0719,262.625 141.0719,427.625 141.0719,427.625" id="Fill-11" fill="#C7E7F8" mask="url(#mask-3)"></path>
                <path d="M435.0719,441.625 C435.0719,441.625 282.0719,228.625 333.4939,168.131 C338.1209,162.688 370.5159,172.912 368.0719,179.625 C335.9549,267.825 434.8169,440.52 435.0719,441.625" id="Fill-13" fill="#99DCFF" mask="url(#mask-3)"></path>
                <path d="M450.0719,748.625 C450.0719,748.625 130.0719,371.625 164.3799,39.438 C165.4019,29.547 193.6849,74.689 194.0719,84.625 C206.0719,392.625 450.0719,748.625 450.0719,748.625" id="Fill-15" fill="#99DCFF" mask="url(#mask-3)"></path>
                <path d="M267.0719,346.625 C258.1579,350.206 219.6659,206.331 231.5729,102.354 C236.8269,56.479 294.0279,25.19 287.9249,64.528 C281.8249,103.841 264.7579,140.103 261.0719,188.625 C252.7489,298.189 267.0719,346.625 267.0719,346.625" id="Fill-18" fill="#FFFFFF" mask="url(#mask-3)"></path>
                <path d="M227.0719,370.625 C219.0919,372.438 192.1959,290.441 186.5289,241.903 C182.1239,204.179 192.2329,61.726 204.9799,68.884 C217.0809,75.681 202.5149,162.521 203.0719,233.625 C203.5489,294.511 232.7069,369.344 227.0719,370.625" id="Fill-20" fill="#F3FDFF" mask="url(#mask-3)"></path>
                <path d="M397.0719,196.625 C397.0719,196.625 449.2319,201.041 405.0719,246.625 C374.0719,278.625 435.0719,441.625 435.0719,441.625 C435.0719,441.625 359.3469,314.705 361.0719,233.625 C362.0719,186.625 377.9779,235.199 383.0719,233.625 C393.2899,230.468 397.0719,196.625 397.0719,196.625" id="Fill-22" fill="#FFFFFF" mask="url(#mask-3)"></path>
            </g>
        </g>
    </g>
</svg>